P3
64 64
255
128 128 128 132 132 132 127 127 127 119 119 119 121 121 121 120 120 120 121 121 121 120 120 120 119 119 119 122 122 122 124 124 124 130 130 130 128 128 128 129 129 129 128 128 128 128 128 128 128 128 128 122 122 122 115 115 115 115 115 115 121 121 121 121 121 121 129 129 129 134 134 134 130 130 130 125 125 125 128 128 128 131 131 131 129 129 129 126 126 126 125 125 125 119 119 119 128 128 128 142 142 142 144 144 144 145 145 145 140 140 140 135 135 135 136 136 136 141 141 141 142 142 142 138 138 138 144 144 144 144 144 144 136 136 136 135 135 135 133 133 133 132 132 132 128 128 128 120 120 120 121 121 121 123 123 123 120 120 120 121 121 121 122 122 122 117 117 117 119 119 119 115 115 115 118 118 118 128 128 128 125 125 125 126 126 126 127 127 127 124 124 124 
145 145 145 147 147 147 136 136 136 124 124 124 123 123 123 124 124 124 124 124 124 121 121 121 122 122 122 122 122 122 121 121 121 121 121 121 120 120 120 124 124 124 125 125 125 126 126 126 127 127 127 126 126 126 122 122 122 125 125 125 127 127 127 121 121 121 120 120 120 121 121 121 124 124 124 130 130 130 132 132 132 131 131 131 134 134 134 134 134 134 128 128 128 123 123 123 132 132 132 145 145 145 146 146 146 152 152 152 152 152 152 141 141 141 134 134 134 137 137 137 143 143 143 143 143 143 140 140 140 137 137 137 131 131 131 133 133 133 133 133 133 130 130 130 125 125 125 118 118 118 125 125 125 129 129 129 125 125 125 121 121 121 123 123 123 121 121 121 116 116 116 113 113 113 120 120 120 132 132 132 130 130 130 133 133 133 136 136 136 136 136 136 
151 151 151 155 155 155 142 142 142 130 130 130 128 128 128 126 126 126 119 119 119 113 113 113 116 116 116 120 120 120 120 120 120 118 118 118 124 124 124 124 124 124 124 124 124 125 125 125 126 126 126 128 128 128 125 125 125 130 130 130 125 125 125 123 123 123 124 124 124 118 118 118 125 125 125 135 135 135 130 130 130 125 125 125 134 134 134 138 138 138 129 129 129 123 123 123 130 130 130 141 141 141 144 144 144 150 150 150 151 151 151 149 149 149 149 149 149 143 143 143 146 146 146 152 152 152 142 142 142 137 137 137 136 136 136 134 134 134 128 128 128 124 124 124 120 120 120 112 112 112 122 122 122 129 129 129 124 124 124 117 117 117 121 121 121 126 126 126 117 117 117 112 112 112 121 121 121 133 133 133 133 133 133 138 138 138 144 144 144 142 142 142 
154 154 154 153 153 153 144 144 144 135 135 135 126 126 126 124 124 124 120 120 120 115 115 115 116 116 116 116 116 116 111 111 111 117 117 117 125 125 125 121 121 121 119 119 119 120 120 120 128 128 128 134 134 134 132 132 132 133 133 133 128 128 128 124 124 124 129 129 129 126 126 126 126 126 126 132 132 132 133 133 133 136 136 136 139 139 139 134 134 134 130 130 130 126 126 126 125 125 125 134 134 134 140 140 140 143 143 143 147 147 147 156 156 156 157 157 157 147 147 147 148 148 148 151 151 151 139 139 139 136 136 136 141 141 141 135 135 135 128 128 128 124 124 124 115 115 115 112 112 112 124 124 124 124 124 124 118 118 118 113 113 113 116 116 116 120 120 120 117 117 117 114 114 114 119 119 119 132 132 132 134 134 134 143 143 143 149 149 149 146 146 146 
152 152 152 149 149 149 146 146 146 144 144 144 135 135 135 125 125 125 120 120 120 115 115 115 115 115 115 117 117 117 114 114 114 117 117 117 115 115 115 112 112 112 115 115 115 113 113 113 123 123 123 133 133 133 133 133 133 131 131 131 126 126 126 119 119 119 127 127 127 136 136 136 138 138 138 137 137 137 141 141 141 146 146 146 138 138 138 131 131 131 135 135 135 137 137 137 135 135 135 135 135 135 137 137 137 139 139 139 146 146 146 157 157 157 152 152 152 142 142 142 146 146 146 149 149 149 137 137 137 132 132 132 136 136 136 131 131 131 130 130 130 130 130 130 120 120 120 114 114 114 119 119 119 117 117 117 114 114 114 114 114 114 118 118 118 122 122 122 124 124 124 126 126 126 130 130 130 140 140 140 142 142 142 150 150 150 150 150 150 145 145 145 
148 148 148 145 145 145 142 142 142 145 145 145 142 142 142 126 126 126 120 120 120 114 114 114 108 108 108 111 111 111 110 110 110 107 107 107 108 108 108 110 110 110 114 114 114 113 113 113 117 117 117 123 123 123 121 121 121 123 123 123 118 118 118 118 118 118 127 127 127 137 137 137 147 147 147 144 144 144 146 146 146 147 147 147 135 135 135 131 131 131 133 133 133 139 139 139 145 145 145 139 139 139 133 133 133 136 136 136 143 143 143 148 148 148 144 144 144 138 138 138 142 142 142 140 140 140 135 135 135 132 132 132 133 133 133 137 137 137 140 140 140 140 140 140 133 133 133 126 126 126 118 118 118 115 115 115 113 113 113 111 111 111 119 119 119 130 130 130 136 136 136 134 134 134 136 136 136 149 149 149 156 156 156 159 159 159 151 151 151 146 146 146 
142 142 142 143 143 143 144 144 144 144 144 144 140 140 140 128 128 128 129 129 129 126 126 126 119 119 119 115 115 115 108 108 108 103 103 103 109 109 109 112 112 112 114 114 114 115 115 115 116 116 116 122 122 122 124 124 124 128 128 128 123 123 123 121 121 121 122 122 122 126 126 126 137 137 137 140 140 140 146 146 146 150 150 150 141 141 141 139 139 139 137 137 137 137 137 137 137 137 137 139 139 139 139 139 139 143 143 143 147 147 147 147 147 147 146 146 146 137 137 137 135 135 135 131 131 131 133 133 133 139 139 139 141 141 141 144 144 144 142 142 142 138 138 138 131 131 131 131 131 131 122 122 122 116 116 116 113 113 113 111 111 111 123 123 123 133 133 133 137 137 137 138 138 138 144 144 144 148 148 148 151 151 151 156 156 156 147 147 147 143 143 143 
140 140 140 143 143 143 151 151 151 147 147 147 138 138 138 134 134 134 138 138 138 140 140 140 134 134 134 123 123 123 116 116 116 111 111 111 113 113 113 123 123 123 123 123 123 122 122 122 123 123 123 124 124 124 122 122 122 124 124 124 124 124 124 123 123 123 118 118 118 119 119 119 126 126 126 133 133 133 142 142 142 145 145 145 138 138 138 134 134 134 135 135 135 138 138 138 137 137 137 136 136 136 138 138 138 146 146 146 151 151 151 153 153 153 153 153 153 138 138 138 134 134 134 132 132 132 134 134 134 138 138 138 142 142 142 142 142 142 137 137 137 137 137 137 129 129 129 128 128 128 124 124 124 118 118 118 111 111 111 113 113 113 125 125 125 131 131 131 132 132 132 133 133 133 144 144 144 145 145 145 143 143 143 144 144 144 137 137 137 140 140 140 
144 144 144 141 141 141 147 147 147 145 145 145 143 143 143 140 140 140 141 141 141 142 142 142 132 132 132 117 117 117 113 113 113 113 113 113 117 117 117 130 130 130 127 127 127 122 122 122 122 122 122 124 124 124 123 123 123 120 120 120 122 122 122 122 122 122 113 113 113 118 118 118 126 126 126 133 133 133 142 142 142 142 142 142 136 136 136 131 131 131 137 137 137 144 144 144 141 141 141 139 139 139 142 142 142 150 150 150 150 150 150 152 152 152 152 152 152 143 143 143 147 147 147 143 143 143 139 139 139 139 139 139 142 142 142 146 146 146 143 143 143 139 139 139 125 125 125 119 119 119 117 117 117 119 119 119 114 114 114 113 113 113 118 118 118 124 124 124 128 128 128 124 124 124 137 137 137 141 141 141 141 141 141 142 142 142 139 139 139 147 147 147 
143 143 143 142 142 142 139 139 139 136 136 136 137 137 137 135 135 135 139 139 139 142 142 142 130 130 130 115 115 115 113 113 113 118 118 118 124 124 124 130 130 130 126 126 126 119 119 119 121 121 121 125 125 125 130 130 130 132 132 132 128 128 128 122 122 122 112 112 112 119 119 119 129 129 129 134 134 134 142 142 142 144 144 144 145 145 145 139 139 139 142 142 142 147 147 147 147 147 147 149 149 149 152 152 152 151 151 151 146 146 146 151 151 151 157 157 157 154 154 154 152 152 152 149 149 149 144 144 144 139 139 139 145 145 145 148 148 148 143 143 143 134 134 134 120 120 120 117 117 117 111 111 111 109 109 109 107 107 107 108 108 108 114 114 114 119 119 119 119 119 119 121 121 121 133 133 133 139 139 139 142 142 142 143 143 143 142 142 142 142 142 142 
136 136 136 142 142 142 134 134 134 129 129 129 134 134 134 136 136 136 144 144 144 150 150 150 136 136 136 124 124 124 124 124 124 128 128 128 128 128 128 130 130 130 127 127 127 117 117 117 121 121 121 122 122 122 126 126 126 135 135 135 126 126 126 123 123 123 120 120 120 123 123 123 128 128 128 132 132 132 140 140 140 138 138 138 140 140 140 137 137 137 139 139 139 144 144 144 148 148 148 149 149 149 146 146 146 148 148 148 148 148 148 151 151 151 159 159 159 162 162 162 156 156 156 152 152 152 144 144 144 135 135 135 145 145 145 148 148 148 144 144 144 134 134 134 124 124 124 124 124 124 113 113 113 107 107 107 106 106 106 102 102 102 104 104 104 113 113 113 116 116 116 122 122 122 129 129 129 133 133 133 136 136 136 136 136 136 135 135 135 128 128 128 
125 125 125 127 127 127 124 124 124 128 128 128 142 142 142 147 147 147 147 147 147 146 146 146 139 139 139 135 135 135 138 138 138 132 132 132 126 126 126 130 130 130 130 130 130 121 121 121 116 116 116 121 121 121 128 128 128 129 129 129 125 125 125 126 126 126 123 123 123 123 123 123 123 123 123 129 129 129 138 138 138 132 132 132 131 131 131 134 134 134 139 139 139 138 138 138 137 137 137 139 139 139 138 138 138 142 142 142 147 147 147 151 151 151 151 151 151 155 155 155 157 157 157 148 148 148 138 138 138 138 138 138 147 147 147 149 149 149 149 149 149 143 143 143 131 131 131 125 125 125 118 118 118 118 118 118 116 116 116 104 104 104 96 96 96 105 105 105 112 112 112 121 121 121 130 130 130 127 127 127 126 126 126 128 128 128 130 130 130 126 126 126 
127 127 127 125 125 125 127 127 127 128 128 128 137 137 137 152 152 152 153 153 153 146 146 146 146 146 146 140 140 140 133 133 133 129 129 129 129 129 129 127 127 127 124 124 124 128 128 128 124 124 124 123 123 123 124 124 124 118 118 118 119 119 119 124 124 124 119 119 119 119 119 119 120 120 120 124 124 124 129 129 129 126 126 126 133 133 133 130 130 130 128 128 128 133 133 133 137 137 137 139 139 139 140 140 140 139 139 139 142 142 142 152 152 152 153 153 153 146 146 146 145 145 145 138 138 138 134 134 134 138 138 138 140 140 140 142 142 142 146 146 146 145 145 145 131 131 131 122 122 122 121 121 121 122 122 122 116 116 116 110 110 110 104 104 104 106 106 106 113 113 113 118 118 118 123 123 123 121 121 121 126 126 126 126 126 126 128 128 128 133 133 133 
131 131 131 128 128 128 134 134 134 135 135 135 137 137 137 150 150 150 157 157 157 156 156 156 153 153 153 138 138 138 125 125 125 127 127 127 128 128 128 126 126 126 125 125 125 130 130 130 135 135 135 128 128 128 120 120 120 115 115 115 113 113 113 116 116 116 110 110 110 113 113 113 116 116 116 120 120 120 129 129 129 127 127 127 130 130 130 128 128 128 124 124 124 128 128 128 131 131 131 132 132 132 138 138 138 139 139 139 138 138 138 147 147 147 149 149 149 136 136 136 133 133 133 133 133 133 130 130 130 133 133 133 132 132 132 132 132 132 139 139 139 135 135 135 122 122 122 115 115 115 117 117 117 118 118 118 114 114 114 111 111 111 109 109 109 109 109 109 110 110 110 116 116 116 118 118 118 121 121 121 126 126 126 125 125 125 126 126 126 131 131 131 
131 131 131 125 125 125 133 133 133 137 137 137 134 134 134 138 138 138 146 146 146 149 149 149 144 144 144 134 134 134 129 129 129 132 132 132 127 127 127 127 127 127 130 130 130 127 127 127 133 133 133 129 129 129 125 125 125 118 118 118 109 109 109 112 112 112 106 106 106 109 109 109 112 112 112 115 115 115 125 125 125 127 127 127 130 130 130 128 128 128 123 123 123 124 124 124 124 124 124 122 122 122 130 130 130 138 138 138 135 135 135 139 139 139 137 137 137 129 129 129 133 133 133 136 136 136 132 132 132 136 136 136 135 135 135 127 127 127 131 131 131 132 132 132 126 126 126 121 121 121 123 123 123 123 123 123 122 122 122 118 118 118 115 115 115 116 116 116 112 112 112 118 118 118 119 119 119 124 124 124 126 126 126 126 126 126 127 127 127 129 129 129 
135 135 135 129 129 129 133 133 133 136 136 136 128 128 128 128 128 128 132 132 132 134 134 134 131 131 131 125 125 125 128 128 128 130 130 130 128 128 128 133 133 133 133 133 133 124 124 124 125 125 125 128 128 128 125 125 125 117 117 117 112 112 112 112 112 112 109 109 109 113 113 113 116 116 116 118 118 118 120 120 120 124 124 124 133 133 133 129 129 129 123 123 123 124 124 124 124 124 124 127 127 127 130 130 130 137 137 137 140 140 140 140 140 140 135 135 135 133 133 133 138 138 138 137 137 137 138 138 138 142 142 142 135 135 135 122 122 122 126 126 126 131 131 131 132 132 132 129 129 129 128 128 128 127 127 127 122 122 122 126 126 126 128 128 128 127 127 127 124 124 124 121 121 121 123 123 123 132 132 132 132 132 132 129 129 129 125 125 125 128 128 128 
128 128 128 128 128 128 135 135 135 138 138 138 127 127 127 128 128 128 131 131 131 133 133 133 133 133 133 120 120 120 122 122 122 124 124 124 129 129 129 137 137 137 131 131 131 124 124 124 128 128 128 135 135 135 128 128 128 119 119 119 118 118 118 111 111 111 107 107 107 111 111 111 114 114 114 124 124 124 127 127 127 122 122 122 126 126 126 126 126 126 126 126 126 128 128 128 128 128 128 134 134 134 129 129 129 128 128 128 130 130 130 134 134 134 133 133 133 138 138 138 141 141 141 137 137 137 144 144 144 147 147 147 134 134 134 119 119 119 123 123 123 125 125 125 128 128 128 127 127 127 126 126 126 130 130 130 125 125 125 129 129 129 130 130 130 126 126 126 122 122 122 118 118 118 124 124 124 134 134 134 130 130 130 127 127 127 124 124 124 122 122 122 
118 118 118 124 124 124 131 131 131 128 128 128 122 122 122 124 124 124 125 125 125 131 131 131 134 134 134 120 120 120 117 117 117 122 122 122 129 129 129 135 135 135 129 129 129 130 130 130 136 136 136 138 138 138 130 130 130 119 119 119 119 119 119 114 114 114 111 111 111 112 112 112 113 113 113 124 124 124 125 125 125 120 120 120 120 120 120 124 124 124 129 129 129 133 133 133 138 138 138 137 137 137 132 132 132 126 126 126 124 124 124 132 132 132 134 134 134 135 135 135 140 140 140 144 144 144 147 147 147 145 145 145 132 132 132 121 121 121 120 120 120 121 121 121 127 127 127 127 127 127 128 128 128 133 133 133 129 129 129 132 132 132 131 131 131 123 123 123 120 120 120 121 121 121 121 121 121 126 126 126 128 128 128 126 126 126 124 124 124 118 118 118 
122 122 122 128 128 128 127 127 127 121 121 121 124 124 124 126 126 126 123 123 123 123 123 123 121 121 121 114 114 114 116 116 116 118 118 118 121 121 121 131 131 131 130 130 130 131 131 131 135 135 135 137 137 137 132 132 132 120 120 120 122 122 122 120 120 120 117 117 117 116 116 116 115 115 115 124 124 124 122 122 122 124 124 124 127 127 127 129 129 129 132 132 132 131 131 131 133 133 133 130 130 130 131 131 131 132 132 132 133 133 133 139 139 139 135 135 135 133 133 133 142 142 142 149 149 149 144 144 144 138 138 138 129 129 129 122 122 122 119 119 119 115 115 115 120 120 120 120 120 120 124 124 124 131 131 131 127 127 127 130 130 130 129 129 129 125 125 125 130 130 130 135 135 135 128 128 128 122 122 122 121 121 121 120 120 120 115 115 115 115 115 115 
120 120 120 123 123 123 121 121 121 117 117 117 119 119 119 121 121 121 119 119 119 118 118 118 116 116 116 115 115 115 120 120 120 118 118 118 115 115 115 126 126 126 132 132 132 132 132 132 133 133 133 140 140 140 138 138 138 128 128 128 125 125 125 120 120 120 118 118 118 118 118 118 112 112 112 118 118 118 122 122 122 128 128 128 136 136 136 135 135 135 132 132 132 131 131 131 130 130 130 124 124 124 123 123 123 127 127 127 134 134 134 139 139 139 136 136 136 134 134 134 143 143 143 147 147 147 143 143 143 138 138 138 129 129 129 123 123 123 115 115 115 109 109 109 113 113 113 115 115 115 115 115 115 124 124 124 128 128 128 123 123 123 116 116 116 118 118 118 132 132 132 139 139 139 136 136 136 125 125 125 114 114 114 111 111 111 111 111 111 114 114 114 
118 118 118 120 120 120 117 117 117 115 115 115 116 116 116 114 114 114 115 115 115 115 115 115 114 114 114 115 115 115 120 120 120 123 123 123 125 125 125 130 130 130 133 133 133 135 135 135 138 138 138 139 139 139 131 131 131 127 127 127 123 123 123 120 120 120 125 125 125 127 127 127 114 114 114 113 113 113 117 117 117 122 122 122 129 129 129 134 134 134 136 136 136 136 136 136 133 133 133 128 128 128 128 128 128 125 125 125 131 131 131 133 133 133 130 130 130 128 128 128 135 135 135 138 138 138 139 139 139 134 134 134 126 126 126 126 126 126 118 118 118 111 111 111 114 114 114 120 120 120 114 114 114 112 112 112 114 114 114 113 113 113 110 110 110 108 108 108 122 122 122 130 130 130 130 130 130 130 130 130 124 124 124 114 114 114 113 113 113 115 115 115 
122 122 122 120 120 120 114 114 114 111 111 111 115 115 115 119 119 119 119 119 119 113 113 113 109 109 109 116 116 116 119 119 119 121 121 121 125 125 125 125 125 125 126 126 126 132 132 132 139 139 139 135 135 135 124 124 124 127 127 127 125 125 125 126 126 126 131 131 131 125 125 125 111 111 111 108 108 108 115 115 115 116 116 116 118 118 118 126 126 126 128 128 128 128 128 128 128 128 128 127 127 127 131 131 131 130 130 130 128 128 128 128 128 128 128 128 128 127 127 127 128 128 128 134 134 134 142 142 142 139 139 139 129 129 129 128 128 128 127 127 127 120 120 120 115 115 115 118 118 118 116 116 116 107 107 107 106 106 106 110 110 110 109 109 109 104 104 104 114 114 114 119 119 119 120 120 120 130 130 130 127 127 127 113 113 113 108 108 108 115 115 115 
113 113 113 115 115 115 114 114 114 105 105 105 109 109 109 115 115 115 113 113 113 114 114 114 120 120 120 127 127 127 123 123 123 119 119 119 122 122 122 122 122 122 129 129 129 131 131 131 133 133 133 134 134 134 131 131 131 133 133 133 128 128 128 124 124 124 122 122 122 118 118 118 112 112 112 106 106 106 114 114 114 118 118 118 120 120 120 128 128 128 127 127 127 125 125 125 128 128 128 124 124 124 125 125 125 131 131 131 126 126 126 124 124 124 126 126 126 129 129 129 129 129 129 130 130 130 137 137 137 138 138 138 129 129 129 122 122 122 120 120 120 121 121 121 115 115 115 113 113 113 113 113 113 105 105 105 109 109 109 109 109 109 101 101 101 98 98 98 108 108 108 112 112 112 117 117 117 127 127 127 120 120 120 112 112 112 111 111 111 112 112 112 
109 109 109 115 115 115 118 118 118 114 114 114 115 115 115 111 111 111 110 110 110 115 115 115 121 121 121 127 127 127 127 127 127 124 124 124 119 119 119 122 122 122 130 130 130 131 131 131 130 130 130 128 128 128 130 130 130 132 132 132 123 123 123 114 114 114 114 114 114 120 120 120 120 120 120 115 115 115 120 120 120 121 121 121 123 123 123 130 130 130 127 127 127 122 122 122 128 128 128 123 123 123 121 121 121 131 131 131 128 128 128 120 120 120 117 117 117 123 123 123 131 131 131 130 130 130 127 127 127 131 131 131 128 128 128 121 121 121 120 120 120 118 118 118 116 116 116 114 114 114 109 109 109 106 106 106 106 106 106 101 101 101 96 96 96 101 101 101 109 109 109 111 111 111 117 117 117 122 122 122 116 116 116 111 111 111 115 115 115 115 115 115 
114 114 114 118 118 118 122 122 122 122 122 122 120 120 120 113 113 113 117 117 117 118 118 118 119 119 119 122 122 122 124 124 124 126 126 126 119 119 119 119 119 119 120 120 120 122 122 122 122 122 122 114 114 114 118 118 118 124 124 124 116 116 116 107 107 107 115 115 115 121 121 121 118 118 118 118 118 118 124 124 124 125 125 125 128 128 128 135 135 135 127 127 127 118 118 118 123 123 123 122 122 122 121 121 121 129 129 129 123 123 123 121 121 121 125 125 125 123 123 123 128 128 128 137 137 137 134 134 134 132 132 132 126 126 126 120 120 120 122 122 122 119 119 119 122 122 122 125 125 125 119 119 119 117 117 117 110 110 110 102 102 102 106 106 106 116 116 116 116 116 116 112 112 112 115 115 115 120 120 120 119 119 119 111 111 111 115 115 115 119 119 119 
117 117 117 126 126 126 131 131 131 126 126 126 119 119 119 114 114 114 120 120 120 120 120 120 121 121 121 122 122 122 117 117 117 124 124 124 122 122 122 118 118 118 115 115 115 115 115 115 113 113 113 109 109 109 113 113 113 110 110 110 102 102 102 100 100 100 111 111 111 118 118 118 118 118 118 120 120 120 125 125 125 129 129 129 135 135 135 137 137 137 131 131 131 129 129 129 127 127 127 122 122 122 124 124 124 123 123 123 118 118 118 123 123 123 133 133 133 135 135 135 131 131 131 135 135 135 136 136 136 133 133 133 126 126 126 120 120 120 125 125 125 127 127 127 127 127 127 128 128 128 124 124 124 120 120 120 113 113 113 109 109 109 114 114 114 119 119 119 124 124 124 123 123 123 118 118 118 125 125 125 131 131 131 121 121 121 120 120 120 120 120 120 
116 116 116 124 124 124 124 124 124 127 127 127 125 125 125 117 117 117 119 119 119 118 118 118 120 120 120 127 127 127 124 124 124 125 125 125 118 118 118 112 112 112 111 111 111 110 110 110 108 108 108 106 106 106 106 106 106 101 101 101 100 100 100 99 99 99 107 107 107 116 116 116 122 122 122 125 125 125 127 127 127 128 128 128 131 131 131 132 132 132 131 131 131 135 135 135 127 127 127 119 119 119 123 123 123 121 121 121 121 121 121 125 125 125 131 131 131 142 142 142 136 136 136 134 134 134 135 135 135 134 134 134 127 127 127 120 120 120 127 127 127 136 136 136 136 136 136 132 132 132 128 128 128 125 125 125 119 119 119 119 119 119 122 122 122 120 120 120 132 132 132 140 140 140 133 133 133 132 132 132 134 134 134 126 126 126 125 125 125 118 118 118 
118 118 118 125 125 125 122 122 122 124 124 124 130 130 130 126 126 126 122 122 122 119 119 119 125 125 125 136 136 136 131 131 131 125 125 125 122 122 122 111 111 111 103 103 103 106 106 106 105 105 105 106 106 106 108 108 108 102 102 102 101 101 101 98 98 98 103 103 103 110 110 110 115 115 115 118 118 118 121 121 121 126 126 126 126 126 126 127 127 127 129 129 129 127 127 127 117 117 117 119 119 119 121 121 121 123 123 123 129 129 129 126 126 126 126 126 126 138 138 138 135 135 135 134 134 134 138 138 138 131 131 131 121 121 121 115 115 115 118 118 118 128 128 128 136 136 136 138 138 138 132 132 132 129 129 129 128 128 128 129 129 129 131 131 131 128 128 128 133 133 133 140 140 140 142 142 142 134 134 134 132 132 132 133 133 133 129 129 129 119 119 119 
125 125 125 132 132 132 126 126 126 120 120 120 126 126 126 128 128 128 122 122 122 120 120 120 130 130 130 139 139 139 129 129 129 119 119 119 120 120 120 114 114 114 111 111 111 114 114 114 109 109 109 110 110 110 113 113 113 107 107 107 108 108 108 105 105 105 106 106 106 110 110 110 114 114 114 114 114 114 116 116 116 123 123 123 119 119 119 116 116 116 120 120 120 119 119 119 118 118 118 125 125 125 120 120 120 116 116 116 120 120 120 121 121 121 127 127 127 132 132 132 124 124 124 122 122 122 126 126 126 124 124 124 125 125 125 121 121 121 119 119 119 120 120 120 127 127 127 134 134 134 124 124 124 122 122 122 124 124 124 126 126 126 127 127 127 127 127 127 129 129 129 129 129 129 134 134 134 130 130 130 135 135 135 141 141 141 131 131 131 120 120 120 
128 128 128 134 134 134 130 130 130 120 120 120 121 121 121 122 122 122 121 121 121 123 123 123 132 132 132 136 136 136 129 129 129 128 128 128 125 125 125 121 121 121 116 116 116 112 112 112 109 109 109 109 109 109 113 113 113 118 118 118 124 124 124 115 115 115 110 110 110 113 113 113 118 118 118 116 116 116 116 116 116 122 122 122 118 118 118 114 114 114 118 118 118 119 119 119 117 117 117 116 116 116 113 113 113 109 109 109 111 111 111 120 120 120 129 129 129 126 126 126 117 117 117 118 118 118 122 122 122 127 127 127 126 126 126 121 121 121 121 121 121 123 123 123 126 126 126 130 130 130 122 122 122 115 115 115 116 116 116 121 121 121 126 126 126 129 129 129 129 129 129 127 127 127 132 132 132 131 131 131 135 135 135 142 142 142 135 135 135 126 126 126 
136 136 136 135 135 135 126 126 126 120 120 120 123 123 123 120 120 120 122 122 122 124 124 124 127 127 127 132 132 132 134 134 134 138 138 138 128 128 128 124 124 124 118 118 118 112 112 112 118 118 118 120 120 120 126 126 126 129 129 129 124 124 124 119 119 119 116 116 116 113 113 113 114 114 114 113 113 113 114 114 114 121 121 121 120 120 120 117 117 117 120 120 120 122 122 122 114 114 114 113 113 113 118 118 118 114 114 114 116 116 116 120 120 120 120 120 120 119 119 119 122 122 122 122 122 122 122 122 122 126 126 126 118 118 118 108 108 108 110 110 110 117 117 117 120 120 120 125 125 125 122 122 122 115 115 115 119 119 119 120 120 120 122 122 122 129 129 129 129 129 129 127 127 127 134 134 134 132 132 132 130 130 130 137 137 137 135 135 135 132 132 132 
137 137 137 127 127 127 112 112 112 117 117 117 126 126 126 125 125 125 122 122 122 122 122 122 127 127 127 135 135 135 140 140 140 138 138 138 124 124 124 120 120 120 117 117 117 121 121 121 130 130 130 130 130 130 137 137 137 136 136 136 124 124 124 121 121 121 126 126 126 124 124 124 116 116 116 114 114 114 118 118 118 121 121 121 118 118 118 120 120 120 122 122 122 125 125 125 125 125 125 124 124 124 125 125 125 125 125 125 124 124 124 120 120 120 116 116 116 121 121 121 128 128 128 125 125 125 120 120 120 121 121 121 114 114 114 108 108 108 107 107 107 110 110 110 120 120 120 125 125 125 124 124 124 124 124 124 124 124 124 121 121 121 122 122 122 124 124 124 125 125 125 130 130 130 138 138 138 137 137 137 129 129 129 133 133 133 132 132 132 130 130 130 
128 128 128 122 122 122 115 115 115 117 117 117 118 118 118 123 123 123 121 121 121 118 118 118 124 124 124 131 131 131 134 134 134 135 135 135 127 127 127 121 121 121 120 120 120 124 124 124 128 128 128 126 126 126 133 133 133 137 137 137 128 128 128 120 120 120 129 129 129 138 138 138 132 132 132 123 123 123 123 123 123 127 127 127 126 126 126 133 133 133 132 132 132 127 127 127 128 128 128 131 131 131 131 131 131 132 132 132 127 127 127 124 124 124 123 123 123 124 124 124 125 125 125 126 126 126 127 127 127 126 126 126 124 124 124 119 119 119 115 115 115 112 112 112 128 128 128 134 134 134 135 135 135 138 138 138 129 129 129 123 123 123 123 123 123 122 122 122 128 128 128 135 135 135 142 142 142 148 148 148 140 140 140 138 138 138 136 136 136 125 125 125 
122 122 122 123 123 123 125 125 125 124 124 124 118 118 118 118 118 118 120 120 120 118 118 118 119 119 119 125 125 125 125 125 125 128 128 128 126 126 126 120 120 120 122 122 122 123 123 123 121 121 121 124 124 124 129 129 129 131 131 131 126 126 126 126 126 126 139 139 139 148 148 148 148 148 148 134 134 134 128 128 128 132 132 132 133 133 133 136 136 136 134 134 134 130 130 130 128 128 128 135 135 135 142 142 142 136 136 136 127 127 127 127 127 127 128 128 128 124 124 124 127 127 127 129 129 129 126 126 126 129 129 129 128 128 128 119 119 119 118 118 118 122 122 122 131 131 131 135 135 135 143 143 143 147 147 147 141 141 141 132 132 132 125 125 125 126 126 126 133 133 133 137 137 137 138 138 138 145 145 145 148 148 148 145 145 145 142 142 142 130 130 130 
130 130 130 124 124 124 124 124 124 131 131 131 129 129 129 124 124 124 130 130 130 132 132 132 130 130 130 131 131 131 128 128 128 128 128 128 126 126 126 122 122 122 127 127 127 129 129 129 128 128 128 133 133 133 136 136 136 136 136 136 136 136 136 135 135 135 141 141 141 147 147 147 147 147 147 136 136 136 130 130 130 130 130 130 127 127 127 133 133 133 134 134 134 135 135 135 136 136 136 135 135 135 136 136 136 136 136 136 135 135 135 137 137 137 136 136 136 128 128 128 134 134 134 139 139 139 131 131 131 131 131 131 127 127 127 121 121 121 127 127 127 136 136 136 134 134 134 129 129 129 139 139 139 142 142 142 137 137 137 132 132 132 128 128 128 126 126 126 125 125 125 132 132 132 133 133 133 132 132 132 141 141 141 142 142 142 143 143 143 140 140 140 
138 138 138 132 132 132 127 127 127 134 134 134 131 131 131 130 130 130 136 136 136 134 134 134 131 131 131 129 129 129 124 124 124 124 124 124 131 131 131 134 134 134 134 134 134 138 138 138 139 139 139 136 136 136 140 140 140 148 148 148 148 148 148 139 139 139 137 137 137 145 145 145 144 144 144 131 131 131 126 126 126 126 126 126 124 124 124 132 132 132 138 138 138 135 135 135 137 137 137 134 134 134 130 130 130 136 136 136 139 139 139 140 140 140 144 144 144 140 140 140 141 141 141 142 142 142 133 133 133 130 130 130 127 127 127 124 124 124 135 135 135 136 136 136 130 130 130 128 128 128 134 134 134 132 132 132 125 125 125 127 127 127 124 124 124 123 123 123 124 124 124 124 124 124 127 127 127 130 130 130 136 136 136 142 142 142 144 144 144 140 140 140 
135 135 135 131 131 131 126 126 126 131 131 131 125 125 125 125 125 125 129 129 129 128 128 128 130 130 130 127 127 127 123 123 123 121 121 121 132 132 132 142 142 142 140 140 140 140 140 140 137 137 137 133 133 133 141 141 141 148 148 148 142 142 142 139 139 139 145 145 145 152 152 152 146 146 146 135 135 135 135 135 135 136 136 136 137 137 137 135 135 135 131 131 131 123 123 123 124 124 124 125 125 125 123 123 123 129 129 129 130 130 130 130 130 130 138 138 138 139 139 139 137 137 137 138 138 138 131 131 131 130 130 130 129 129 129 124 124 124 132 132 132 129 129 129 125 125 125 125 125 125 124 124 124 124 124 124 124 124 124 129 129 129 122 122 122 119 119 119 120 120 120 115 115 115 118 118 118 129 129 129 133 133 133 144 144 144 147 147 147 135 135 135 
133 133 133 123 123 123 115 115 115 120 120 120 119 119 119 123 123 123 131 131 131 135 135 135 138 138 138 132 132 132 126 126 126 128 128 128 134 134 134 144 144 144 143 143 143 141 141 141 137 137 137 131 131 131 140 140 140 144 144 144 138 138 138 137 137 137 146 146 146 150 150 150 141 141 141 137 137 137 145 145 145 145 145 145 144 144 144 138 138 138 124 124 124 116 116 116 120 120 120 121 121 121 119 119 119 122 122 122 119 119 119 119 119 119 127 127 127 128 128 128 126 126 126 131 131 131 130 130 130 127 127 127 128 128 128 127 127 127 127 127 127 125 125 125 126 126 126 121 121 121 113 113 113 118 118 118 126 126 126 123 123 123 118 118 118 119 119 119 116 116 116 108 108 108 111 111 111 121 121 121 129 129 129 137 137 137 138 138 138 135 135 135 
126 126 126 120 120 120 120 120 120 121 121 121 123 123 123 127 127 127 134 134 134 137 137 137 135 135 135 129 129 129 126 126 126 128 128 128 129 129 129 138 138 138 138 138 138 140 140 140 138 138 138 128 128 128 133 133 133 137 137 137 133 133 133 130 130 130 135 135 135 143 143 143 138 138 138 134 134 134 143 143 143 143 143 143 143 143 143 142 142 142 130 130 130 120 120 120 123 123 123 124 124 124 121 121 121 124 124 124 120 120 120 119 119 119 128 128 128 132 132 132 132 132 132 134 134 134 129 129 129 123 123 123 126 126 126 131 131 131 128 128 128 123 123 123 123 123 123 124 124 124 120 120 120 117 117 117 119 119 119 114 114 114 116 116 116 125 125 125 119 119 119 115 115 115 123 123 123 124 124 124 129 129 129 133 133 133 132 132 132 133 133 133 
127 127 127 125 125 125 123 123 123 121 121 121 125 125 125 128 128 128 134 134 134 135 135 135 132 132 132 134 134 134 132 132 132 125 125 125 119 119 119 126 126 126 136 136 136 137 137 137 134 134 134 127 127 127 124 124 124 128 128 128 128 128 128 129 129 129 134 134 134 136 136 136 137 137 137 141 141 141 143 143 143 141 141 141 143 143 143 144 144 144 135 135 135 124 124 124 126 126 126 130 130 130 127 127 127 125 125 125 120 120 120 119 119 119 124 124 124 128 128 128 129 129 129 130 130 130 127 127 127 126 126 126 128 128 128 130 130 130 129 129 129 126 126 126 125 125 125 123 123 123 124 124 124 119 119 119 118 118 118 114 114 114 115 115 115 124 124 124 124 124 124 128 128 128 135 135 135 128 128 128 123 123 123 124 124 124 125 125 125 128 128 128 
130 130 130 130 130 130 123 123 123 119 119 119 126 126 126 131 131 131 139 139 139 138 138 138 134 134 134 133 133 133 125 125 125 125 125 125 126 126 126 123 123 123 131 131 131 131 131 131 128 128 128 130 130 130 123 123 123 128 128 128 132 132 132 130 130 130 131 131 131 125 125 125 132 132 132 147 147 147 145 145 145 137 137 137 138 138 138 137 137 137 126 126 126 121 121 121 128 128 128 135 135 135 131 131 131 129 129 129 125 125 125 123 123 123 122 122 122 123 123 123 123 123 123 124 124 124 125 125 125 126 126 126 124 124 124 125 125 125 127 127 127 127 127 127 126 126 126 122 122 122 127 127 127 124 124 124 127 127 127 121 121 121 117 117 117 122 122 122 123 123 123 130 130 130 131 131 131 128 128 128 126 126 126 124 124 124 124 124 124 128 128 128 
124 124 124 126 126 126 121 121 121 119 119 119 126 126 126 130 130 130 139 139 139 135 135 135 130 130 130 130 130 130 119 119 119 122 122 122 126 126 126 126 126 126 131 131 131 130 130 130 126 126 126 126 126 126 124 124 124 129 129 129 133 133 133 129 129 129 130 130 130 130 130 130 131 131 131 142 142 142 142 142 142 136 136 136 136 136 136 130 130 130 123 123 123 123 123 123 124 124 124 129 129 129 133 133 133 138 138 138 136 136 136 131 131 131 123 123 123 116 116 116 118 118 118 126 126 126 131 131 131 131 131 131 130 130 130 130 130 130 128 128 128 127 127 127 123 123 123 123 123 123 135 135 135 133 133 133 127 127 127 119 119 119 120 120 120 118 118 118 113 113 113 122 122 122 128 128 128 130 130 130 133 133 133 127 127 127 124 124 124 123 123 123 
125 125 125 128 128 128 121 121 121 121 121 121 125 125 125 126 126 126 131 131 131 127 127 127 125 125 125 132 132 132 123 123 123 121 121 121 121 121 121 124 124 124 126 126 126 128 128 128 127 127 127 122 122 122 123 123 123 128 128 128 131 131 131 125 125 125 130 130 130 134 134 134 131 131 131 135 135 135 135 135 135 132 132 132 133 133 133 130 130 130 136 136 136 139 139 139 133 133 133 128 128 128 132 132 132 138 138 138 132 132 132 127 127 127 119 119 119 107 107 107 114 114 114 124 124 124 126 126 126 127 127 127 131 131 131 134 134 134 131 131 131 133 133 133 130 130 130 124 124 124 130 130 130 135 135 135 126 126 126 114 114 114 116 116 116 119 119 119 120 120 120 125 125 125 125 125 125 123 123 123 125 125 125 123 123 123 124 124 124 122 122 122 
127 127 127 130 130 130 126 126 126 127 127 127 130 130 130 126 126 126 123 123 123 125 125 125 130 130 130 134 134 134 130 130 130 126 126 126 124 124 124 120 120 120 116 116 116 118 118 118 120 120 120 118 118 118 119 119 119 125 125 125 125 125 125 121 121 121 121 121 121 124 124 124 124 124 124 124 124 124 125 125 125 124 124 124 130 130 130 137 137 137 143 143 143 145 145 145 136 136 136 128 128 128 124 124 124 122 122 122 122 122 122 123 123 123 115 115 115 107 107 107 114 114 114 123 123 123 128 128 128 128 128 128 125 125 125 128 128 128 130 130 130 132 132 132 136 136 136 128 128 128 128 128 128 134 134 134 131 131 131 117 117 117 113 113 113 121 121 121 123 123 123 123 123 123 119 119 119 118 118 118 120 120 120 125 125 125 129 129 129 125 125 125 
121 121 121 122 122 122 120 120 120 122 122 122 126 126 126 127 127 127 131 131 131 128 128 128 131 131 131 132 132 132 130 130 130 125 125 125 118 118 118 118 118 118 119 119 119 117 117 117 119 119 119 115 115 115 113 113 113 122 122 122 119 119 119 120 120 120 118 118 118 117 117 117 118 118 118 118 118 118 125 125 125 125 125 125 135 135 135 146 146 146 147 147 147 146 146 146 133 133 133 126 126 126 120 120 120 111 111 111 117 117 117 121 121 121 111 111 111 109 109 109 117 117 117 123 123 123 127 127 127 130 130 130 123 123 123 122 122 122 124 124 124 121 121 121 129 129 129 128 128 128 132 132 132 135 135 135 130 130 130 123 123 123 121 121 121 126 126 126 126 126 126 128 128 128 125 125 125 124 124 124 125 125 125 127 127 127 125 125 125 120 120 120 
125 125 125 125 125 125 118 118 118 117 117 117 121 121 121 128 128 128 139 139 139 136 136 136 128 128 128 130 130 130 128 128 128 123 123 123 123 123 123 127 127 127 124 124 124 115 115 115 114 114 114 116 116 116 114 114 114 113 113 113 114 114 114 120 120 120 119 119 119 113 113 113 112 112 112 116 116 116 129 129 129 133 133 133 136 136 136 143 143 143 143 143 143 139 139 139 127 127 127 119 119 119 116 116 116 113 113 113 114 114 114 111 111 111 110 110 110 115 115 115 120 120 120 121 121 121 120 120 120 124 124 124 122 122 122 122 122 122 122 122 122 119 119 119 121 121 121 123 123 123 128 128 128 134 134 134 135 135 135 128 128 128 128 128 128 135 135 135 135 135 135 132 132 132 125 125 125 123 123 123 127 127 127 130 130 130 123 123 123 120 120 120 
128 128 128 132 132 132 125 125 125 121 121 121 127 127 127 130 130 130 141 141 141 147 147 147 140 140 140 138 138 138 132 132 132 123 123 123 129 129 129 132 132 132 120 120 120 110 110 110 114 114 114 121 121 121 116 116 116 109 109 109 116 116 116 122 122 122 117 117 117 115 115 115 118 118 118 119 119 119 128 128 128 141 141 141 142 142 142 142 142 142 138 138 138 133 133 133 124 124 124 114 114 114 114 114 114 115 115 115 104 104 104 96 96 96 105 105 105 119 119 119 123 123 123 127 127 127 130 130 130 125 125 125 118 118 118 116 116 116 114 114 114 115 115 115 117 117 117 121 121 121 128 128 128 133 133 133 136 136 136 129 129 129 130 130 130 133 133 133 128 128 128 128 128 128 126 126 126 119 119 119 123 123 123 131 131 131 123 123 123 120 120 120 
125 125 125 126 126 126 126 126 126 127 127 127 136 136 136 141 141 141 148 148 148 155 155 155 148 148 148 136 136 136 126 126 126 121 121 121 126 126 126 131 131 131 120 120 120 117 117 117 127 127 127 131 131 131 125 125 125 123 123 123 127 127 127 124 124 124 123 123 123 126 126 126 125 125 125 124 124 124 134 134 134 148 148 148 147 147 147 139 139 139 137 137 137 132 132 132 124 124 124 118 118 118 118 118 118 115 115 115 105 105 105 97 97 97 101 101 101 120 120 120 129 129 129 130 130 130 136 136 136 133 133 133 122 122 122 113 113 113 112 112 112 115 115 115 118 118 118 122 122 122 128 128 128 133 133 133 131 131 131 125 125 125 125 125 125 123 123 123 122 122 122 128 128 128 129 129 129 119 119 119 121 121 121 127 127 127 125 125 125 125 125 125 
128 128 128 123 123 123 131 131 131 132 132 132 137 137 137 146 146 146 150 150 150 151 151 151 140 140 140 128 128 128 124 124 124 122 122 122 126 126 126 133 133 133 125 125 125 121 121 121 128 128 128 137 137 137 137 137 137 133 133 133 129 129 129 124 124 124 130 130 130 136 136 136 131 131 131 126 126 126 134 134 134 144 144 144 140 140 140 127 127 127 129 129 129 131 131 131 128 128 128 124 124 124 124 124 124 118 118 118 109 109 109 105 105 105 106 106 106 119 119 119 123 123 123 123 123 123 135 135 135 138 138 138 127 127 127 117 117 117 122 122 122 125 125 125 128 128 128 127 127 127 126 126 126 133 133 133 126 126 126 123 123 123 123 123 123 115 115 115 116 116 116 124 124 124 121 121 121 118 118 118 127 127 127 125 125 125 121 121 121 129 129 129 
122 122 122 124 124 124 131 131 131 135 135 135 138 138 138 143 143 143 150 150 150 151 151 151 142 142 142 130 130 130 125 125 125 122 122 122 121 121 121 130 130 130 127 127 127 127 127 127 130 130 130 138 138 138 142 142 142 135 135 135 134 134 134 135 135 135 135 135 135 136 136 136 136 136 136 133 133 133 132 132 132 141 141 141 141 141 141 132 132 132 134 134 134 135 135 135 130 130 130 124 124 124 121 121 121 117 117 117 113 113 113 112 112 112 109 109 109 111 111 111 116 116 116 125 125 125 137 137 137 136 136 136 122 122 122 117 117 117 126 126 126 133 133 133 132 132 132 131 131 131 129 129 129 127 127 127 121 121 121 118 118 118 117 117 117 109 109 109 109 109 109 114 114 114 113 113 113 118 118 118 130 130 130 127 127 127 120 120 120 124 124 124 
124 124 124 128 128 128 132 132 132 141 141 141 143 143 143 142 142 142 150 150 150 153 153 153 146 146 146 135 135 135 130 130 130 129 129 129 127 127 127 134 134 134 133 133 133 135 135 135 135 135 135 137 137 137 139 139 139 134 134 134 141 141 141 149 149 149 143 143 143 137 137 137 140 140 140 144 144 144 140 140 140 141 141 141 141 141 141 134 134 134 134 134 134 135 135 135 127 127 127 122 122 122 122 122 122 116 116 116 114 114 114 115 115 115 111 111 111 108 108 108 120 120 120 128 128 128 132 132 132 136 136 136 131 131 131 123 123 123 128 128 128 137 137 137 132 132 132 128 128 128 123 123 123 117 117 117 114 114 114 113 113 113 114 114 114 108 108 108 110 110 110 113 113 113 114 114 114 118 118 118 127 127 127 129 129 129 128 128 128 128 128 128 
125 125 125 125 125 125 130 130 130 138 138 138 144 144 144 144 144 144 144 144 144 144 144 144 140 140 140 141 141 141 143 143 143 141 141 141 140 140 140 144 144 144 145 145 145 144 144 144 137 137 137 136 136 136 139 139 139 131 131 131 136 136 136 143 143 143 139 139 139 139 139 139 141 141 141 141 141 141 144 144 144 144 144 144 141 141 141 134 134 134 129 129 129 135 135 135 129 129 129 119 119 119 121 121 121 118 118 118 113 113 113 118 118 118 120 120 120 122 122 122 131 131 131 130 130 130 130 130 130 137 137 137 136 136 136 129 129 129 127 127 127 130 130 130 130 130 130 126 126 126 120 120 120 119 119 119 115 115 115 116 116 116 121 121 121 115 115 115 114 114 114 114 114 114 116 116 116 118 118 118 120 120 120 131 131 131 135 135 135 131 131 131 
127 127 127 124 124 124 128 128 128 128 128 128 133 133 133 141 141 141 137 137 137 139 139 139 145 145 145 145 145 145 143 143 143 144 144 144 145 145 145 146 146 146 149 149 149 148 148 148 141 141 141 134 134 134 131 131 131 127 127 127 133 133 133 139 139 139 139 139 139 140 140 140 135 135 135 129 129 129 138 138 138 140 140 140 138 138 138 137 137 137 134 134 134 134 134 134 120 120 120 107 107 107 112 112 112 115 115 115 112 112 112 115 115 115 120 120 120 124 124 124 132 132 132 132 132 132 139 139 139 144 144 144 141 141 141 141 141 141 136 136 136 130 130 130 135 135 135 132 132 132 127 127 127 126 126 126 119 119 119 115 115 115 115 115 115 111 111 111 108 108 108 106 106 106 108 108 108 119 119 119 124 124 124 134 134 134 136 136 136 131 131 131 
132 132 132 130 130 130 131 131 131 129 129 129 128 128 128 132 132 132 128 128 128 133 133 133 144 144 144 146 146 146 145 145 145 145 145 145 148 148 148 148 148 148 148 148 148 148 148 148 145 145 145 138 138 138 124 124 124 121 121 121 127 127 127 131 131 131 133 133 133 132 132 132 133 133 133 128 128 128 127 127 127 129 129 129 127 127 127 130 130 130 131 131 131 128 128 128 117 117 117 106 106 106 106 106 106 103 103 103 105 105 105 109 109 109 116 116 116 123 123 123 126 126 126 130 130 130 139 139 139 151 151 151 150 150 150 149 149 149 146 146 146 141 141 141 146 146 146 140 140 140 132 132 132 123 123 123 111 111 111 110 110 110 107 107 107 103 103 103 100 100 100 100 100 100 108 108 108 123 123 123 128 128 128 129 129 129 132 132 132 132 132 132 
124 124 124 123 123 123 124 124 124 125 125 125 121 121 121 127 127 127 125 125 125 125 125 125 133 133 133 139 139 139 143 143 143 146 146 146 152 152 152 150 150 150 149 149 149 147 147 147 146 146 146 146 146 146 129 129 129 122 122 122 121 121 121 124 124 124 127 127 127 121 121 121 124 124 124 130 130 130 129 129 129 132 132 132 129 129 129 127 127 127 124 124 124 119 119 119 114 114 114 108 108 108 104 104 104 98 98 98 108 108 108 113 113 113 121 121 121 130 130 130 131 131 131 135 135 135 143 143 143 153 153 153 147 147 147 145 145 145 146 146 146 142 142 142 146 146 146 138 138 138 128 128 128 122 122 122 116 116 116 118 118 118 115 115 115 112 112 112 108 108 108 103 103 103 110 110 110 123 123 123 123 123 123 119 119 119 127 127 127 126 126 126 
116 116 116 116 116 116 122 122 122 125 125 125 119 119 119 125 125 125 129 129 129 124 124 124 126 126 126 133 133 133 136 136 136 144 144 144 149 149 149 144 144 144 145 145 145 141 141 141 140 140 140 143 143 143 135 135 135 128 128 128 126 126 126 130 130 130 128 128 128 121 121 121 123 123 123 130 130 130 135 135 135 137 137 137 131 131 131 127 127 127 120 120 120 117 117 117 115 115 115 108 108 108 102 102 102 99 99 99 108 108 108 117 117 117 126 126 126 129 129 129 130 130 130 136 136 136 146 146 146 151 151 151 146 146 146 147 147 147 143 143 143 138 138 138 137 137 137 127 127 127 118 118 118 118 118 118 122 122 122 126 126 126 125 125 125 122 122 122 121 121 121 111 111 111 111 111 111 122 122 122 126 126 126 122 122 122 125 125 125 122 122 122 
122 122 122 119 119 119 126 126 126 128 128 128 118 118 118 118 118 118 123 123 123 125 125 125 132 132 132 139 139 139 141 141 141 146 146 146 145 145 145 134 134 134 134 134 134 133 133 133 138 138 138 137 137 137 130 130 130 126 126 126 125 125 125 133 133 133 133 133 133 127 127 127 131 131 131 133 133 133 137 137 137 139 139 139 134 134 134 134 134 134 126 126 126 122 122 122 118 118 118 113 113 113 106 106 106 107 107 107 114 114 114 121 121 121 126 126 126 126 126 126 132 132 132 136 136 136 145 145 145 149 149 149 148 148 148 152 152 152 143 143 143 140 140 140 137 137 137 127 127 127 121 121 121 116 116 116 116 116 116 123 123 123 123 123 123 119 119 119 119 119 119 116 116 116 121 121 121 126 126 126 129 129 129 127 127 127 123 123 123 126 126 126 
123 123 123 124 124 124 128 128 128 122 122 122 114 114 114 112 112 112 115 115 115 128 128 128 140 140 140 141 141 141 138 138 138 141 141 141 138 138 138 127 127 127 126 126 126 131 131 131 140 140 140 138 138 138 127 127 127 120 120 120 122 122 122 132 132 132 134 134 134 130 130 130 131 131 131 133 133 133 133 133 133 137 137 137 134 134 134 133 133 133 130 130 130 124 124 124 123 123 123 122 122 122 120 120 120 121 121 121 122 122 122 125 125 125 128 128 128 132 132 132 139 139 139 142 142 142 147 147 147 147 147 147 145 145 145 146 146 146 140 140 140 139 139 139 139 139 139 134 134 134 127 127 127 118 118 118 119 119 119 122 122 122 124 124 124 123 123 123 123 123 123 123 123 123 125 125 125 130 130 130 130 130 130 129 129 129 128 128 128 128 128 128 
119 119 119 120 120 120 121 121 121 112 112 112 112 112 112 113 113 113 118 118 118 128 128 128 133 133 133 137 137 137 137 137 137 138 138 138 135 135 135 130 130 130 132 132 132 132 132 132 132 132 132 136 136 136 129 129 129 121 121 121 127 127 127 133 133 133 133 133 133 132 132 132 134 134 134 136 136 136 132 132 132 134 134 134 129 129 129 126 126 126 125 125 125 120 120 120 126 126 126 125 125 125 121 121 121 125 125 125 123 123 123 123 123 123 125 125 125 127 127 127 129 129 129 134 134 134 139 139 139 142 142 142 146 146 146 144 144 144 141 141 141 135 135 135 133 133 133 135 135 135 127 127 127 117 117 117 121 121 121 122 122 122 127 127 127 131 131 131 131 131 131 135 135 135 133 133 133 138 138 138 138 138 138 131 131 131 128 128 128 126 126 126 
121 121 121 115 115 115 115 115 115 110 110 110 106 106 106 107 107 107 116 116 116 122 122 122 122 122 122 134 134 134 140 140 140 137 137 137 138 138 138 138 138 138 136 136 136 129 129 129 124 124 124 130 130 130 131 131 131 127 127 127 130 130 130 129 129 129 130 130 130 137 137 137 137 137 137 131 131 131 128 128 128 131 131 131 126 126 126 122 122 122 119 119 119 116 116 116 123 123 123 122 122 122 116 116 116 119 119 119 124 124 124 124 124 124 120 120 120 119 119 119 119 119 119 128 128 128 135 135 135 139 139 139 144 144 144 147 147 147 148 148 148 139 139 139 137 137 137 140 140 140 132 132 132 121 121 121 123 123 123 120 120 120 123 123 123 127 127 127 130 130 130 138 138 138 135 135 135 136 136 136 141 141 141 134 134 134 122 122 122 121 121 121 
117 117 117 113 113 113 120 120 120 120 120 120 114 114 114 108 108 108 111 111 111 120 120 120 123 123 123 132 132 132 132 132 132 127 127 127 133 133 133 140 140 140 136 136 136 129 129 129 129 129 129 127 127 127 124 124 124 122 122 122 121 121 121 118 118 118 125 125 125 135 135 135 130 130 130 122 122 122 126 126 126 133 133 133 129 129 129 123 123 123 119 119 119 114 114 114 118 118 118 124 124 124 122 122 122 116 116 116 119 119 119 123 123 123 118 118 118 121 121 121 126 126 126 131 131 131 132 132 132 137 137 137 141 141 141 144 144 144 143 143 143 136 136 136 140 140 140 146 146 146 139 139 139 127 127 127 127 127 127 123 123 123 123 123 123 125 125 125 129 129 129 136 136 136 128 128 128 122 122 122 128 128 128 132 132 132 123 123 123 117 117 117 
118 118 118 122 122 122 127 127 127 127 127 127 121 121 121 116 116 116 115 115 115 116 116 116 121 121 121 129 129 129 130 130 130 132 132 132 138 138 138 140 140 140 141 141 141 134 134 134 130 130 130 122 122 122 116 116 116 119 119 119 119 119 119 116 116 116 125 125 125 132 132 132 126 126 126 127 127 127 130 130 130 129 129 129 129 129 129 129 129 129 123 123 123 110 110 110 113 113 113 126 126 126 130 130 130 119 119 119 118 118 118 120 120 120 120 120 120 132 132 132 141 141 141 139 139 139 130 130 130 134 134 134 144 144 144 145 145 145 142 142 142 133 133 133 130 130 130 136 136 136 139 139 139 134 134 134 129 129 129 123 123 123 125 125 125 128 128 128 127 127 127 130 130 130 125 125 125 117 117 117 119 119 119 128 128 128 125 125 125 118 118 118 
119 119 119 126 126 126 125 125 125 127 127 127 124 124 124 121 121 121 119 119 119 115 115 115 121 121 121 130 130 130 132 132 132 134 134 134 137 137 137 132 132 132 136 136 136 134 134 134 130 130 130 124 124 124 119 119 119 123 123 123 118 118 118 117 117 117 128 128 128 137 137 137 136 136 136 136 136 136 129 129 129 123 123 123 128 128 128 130 130 130 118 118 118 107 107 107 117 117 117 128 128 128 127 127 127 121 121 121 122 122 122 123 123 123 127 127 127 137 137 137 141 141 141 145 145 145 139 139 139 133 133 133 135 135 135 136 136 136 136 136 136 135 135 135 133 133 133 129 129 129 131 131 131 135 135 135 125 125 125 116 116 116 121 121 121 126 126 126 119 119 119 116 116 116 115 115 115 111 111 111 116 116 116 122 122 122 118 118 118 114 114 114 
114 114 114 122 122 122 123 123 123 125 125 125 128 128 128 124 124 124 121 121 121 119 119 119 123 123 123 130 130 130 133 133 133 135 135 135 133 133 133 129 129 129 128 128 128 129 129 129 129 129 129 125 125 125 119 119 119 116 116 116 114 114 114 120 120 120 135 135 135 142 142 142 139 139 139 133 133 133 126 126 126 124 124 124 127 127 127 128 128 128 122 122 122 113 113 113 120 120 120 134 134 134 135 135 135 132 132 132 129 129 129 129 129 129 133 133 133 139 139 139 139 139 139 144 144 144 148 148 148 140 140 140 134 134 134 130 130 130 127 127 127 131 131 131 132 132 132 122 122 122 120 120 120 125 125 125 120 120 120 117 117 117 121 121 121 121 121 121 119 119 119 114 114 114 113 113 113 116 116 116 116 116 116 119 119 119 117 117 117 112 112 112 
