P3
64 64
255
128 128 128 128 128 128 127 127 127 124 124 124 118 118 118 115 115 115 117 117 117 117 117 117 115 115 115 115 115 115 122 122 122 128 128 128 128 128 128 127 127 127 128 128 128 130 130 130 128 128 128 117 117 117 108 108 108 109 109 109 117 117 117 125 125 125 130 130 130 130 130 130 131 131 131 130 130 130 128 128 128 127 127 127 130 130 130 128 128 128 123 123 123 121 121 121 128 128 128 143 143 143 153 153 153 153 153 153 146 146 146 142 142 142 141 141 141 145 145 145 150 150 150 153 153 153 153 153 153 149 149 149 141 141 141 137 137 137 136 136 136 134 134 134 128 128 128 120 120 120 117 117 117 116 116 116 116 116 116 116 116 116 119 119 119 118 118 118 114 114 114 110 110 110 112 112 112 118 118 118 124 124 124 126 126 126 127 127 127 127 127 127 
148 148 148 145 145 145 139 139 139 129 129 129 119 119 119 114 114 114 113 113 113 112 112 112 110 110 110 111 111 111 117 117 117 123 123 123 125 125 125 124 124 124 125 125 125 127 127 127 125 125 125 119 119 119 114 114 114 115 115 115 121 121 121 125 125 125 126 126 126 124 124 124 124 124 124 126 126 126 129 129 129 132 132 132 136 136 136 134 134 134 129 129 129 126 126 126 131 131 131 145 145 145 157 157 157 161 161 161 158 158 158 153 153 153 150 150 150 150 150 150 152 152 152 154 154 154 154 154 154 151 151 151 144 144 144 138 138 138 134 134 134 129 129 129 123 123 123 118 118 118 118 118 118 120 120 120 120 120 120 119 119 119 119 119 119 116 116 116 112 112 112 110 110 110 114 114 114 124 124 124 132 132 132 137 137 137 142 142 142 146 146 146 
164 164 164 160 160 160 151 151 151 139 139 139 128 128 128 119 119 119 113 113 113 111 111 111 109 109 109 110 110 110 115 115 115 120 120 120 122 122 122 122 122 122 122 122 122 123 123 123 125 125 125 125 125 125 124 124 124 124 124 124 124 124 124 124 124 124 122 122 122 122 122 122 123 123 123 127 127 127 131 131 131 136 136 136 137 137 137 134 134 134 130 130 130 128 128 128 131 131 131 142 142 142 154 154 154 162 162 162 165 165 165 164 164 164 161 161 161 158 158 158 156 156 156 154 154 154 150 150 150 146 146 146 141 141 141 135 135 135 129 129 129 122 122 122 115 115 115 114 114 114 118 118 118 122 122 122 121 121 121 119 119 119 117 117 117 114 114 114 111 111 111 110 110 110 117 117 117 128 128 128 137 137 137 144 144 144 154 154 154 162 162 162 
169 169 169 164 164 164 157 157 157 147 147 147 136 136 136 124 124 124 115 115 115 111 111 111 109 109 109 110 110 110 113 113 113 115 115 115 117 117 117 117 117 117 116 116 116 119 119 119 124 124 124 131 131 131 134 134 134 131 131 131 125 125 125 122 122 122 123 123 123 127 127 127 132 132 132 136 136 136 139 139 139 141 141 141 139 139 139 135 135 135 133 133 133 132 132 132 134 134 134 138 138 138 147 147 147 157 157 157 164 164 164 168 168 168 168 168 168 165 165 165 160 160 160 153 153 153 146 146 146 141 141 141 138 138 138 134 134 134 126 126 126 118 118 118 112 112 112 112 112 112 116 116 116 118 118 118 115 115 115 112 112 112 113 113 113 114 114 114 114 114 114 115 115 115 122 122 122 132 132 132 141 141 141 150 150 150 160 160 160 168 168 168 
165 165 165 161 161 161 156 156 156 149 149 149 139 139 139 126 126 126 115 115 115 109 109 109 107 107 107 107 107 107 107 107 107 107 107 107 108 108 108 108 108 108 108 108 108 112 112 112 120 120 120 131 131 131 136 136 136 132 132 132 125 125 125 122 122 122 126 126 126 136 136 136 143 143 143 147 147 147 149 149 149 148 148 148 144 144 144 141 141 141 140 140 140 140 140 140 140 140 140 140 140 140 143 143 143 150 150 150 157 157 157 163 163 163 166 166 166 163 163 163 156 156 156 149 149 149 143 143 143 141 141 141 141 141 141 138 138 138 131 131 131 122 122 122 115 115 115 115 115 115 115 115 115 111 111 111 106 106 106 106 106 106 112 112 112 119 119 119 122 122 122 124 124 124 131 131 131 142 142 142 150 150 150 157 157 157 164 164 164 167 167 167 
158 158 158 155 155 155 154 154 154 150 150 150 141 141 141 129 129 129 118 118 118 111 111 111 107 107 107 103 103 103 100 100 100 98 98 98 99 99 99 100 100 100 102 102 102 106 106 106 113 113 113 123 123 123 130 130 130 128 128 128 122 122 122 120 120 120 126 126 126 137 137 137 147 147 147 152 152 152 156 156 156 155 155 155 150 150 150 146 146 146 144 144 144 144 144 144 144 144 144 143 143 143 144 144 144 148 148 148 155 155 155 159 159 159 159 159 159 153 153 153 146 146 146 140 140 140 139 139 139 143 143 143 147 147 147 146 146 146 142 142 142 134 134 134 126 126 126 122 122 122 117 117 117 110 110 110 104 104 104 106 106 106 117 117 117 129 129 129 135 135 135 137 137 137 145 145 145 154 154 154 161 161 161 164 164 164 164 164 164 161 161 161 
150 150 150 151 151 151 154 154 154 154 154 154 148 148 148 138 138 138 130 130 130 122 122 122 115 115 115 105 105 105 97 97 97 96 96 96 99 99 99 103 103 103 107 107 107 108 108 108 110 110 110 116 116 116 122 122 122 124 124 124 120 120 120 116 116 116 119 119 119 131 131 131 143 143 143 152 152 152 157 157 157 155 155 155 149 149 149 144 144 144 143 143 143 143 143 143 143 143 143 142 142 142 145 145 145 152 152 152 158 158 158 160 160 160 156 156 156 148 148 148 140 140 140 135 135 135 136 136 136 143 143 143 148 148 148 151 151 151 150 150 150 144 144 144 134 134 134 126 126 126 119 119 119 111 111 111 105 105 105 108 108 108 120 120 120 135 135 135 142 142 142 145 145 145 153 153 153 160 160 160 165 165 165 163 163 163 158 158 158 153 153 153 
150 150 150 152 152 152 157 157 157 158 158 158 153 153 153 147 147 147 143 143 143 137 137 137 126 126 126 112 112 112 100 100 100 99 99 99 105 105 105 112 112 112 118 118 118 117 117 117 112 112 112 114 114 114 119 119 119 121 121 121 119 119 119 111 111 111 110 110 110 120 120 120 133 133 133 146 146 146 154 154 154 152 152 152 144 144 144 140 140 140 140 140 140 142 142 142 143 143 143 143 143 143 147 147 147 156 156 156 163 163 163 164 164 164 160 160 160 152 152 152 145 145 145 140 140 140 138 138 138 142 142 142 148 148 148 153 153 153 153 153 153 145 145 145 131 131 131 122 122 122 117 117 117 112 112 112 108 108 108 109 109 109 119 119 119 132 132 132 139 139 139 143 143 143 151 151 151 157 157 157 158 158 158 154 154 154 151 151 151 150 150 150 
154 154 154 156 156 156 158 158 158 157 157 157 152 152 152 150 150 150 149 149 149 145 145 145 135 135 135 118 118 118 105 105 105 105 105 105 111 111 111 120 120 120 127 127 127 126 126 126 119 119 119 118 118 118 121 121 121 123 123 123 119 119 119 109 109 109 104 104 104 112 112 112 125 125 125 140 140 140 150 150 150 148 148 148 141 141 141 139 139 139 142 142 142 147 147 147 149 149 149 148 148 148 151 151 151 157 157 157 163 163 163 166 166 166 166 166 166 163 163 163 158 158 158 152 152 152 146 146 146 146 146 146 150 150 150 154 154 154 152 152 152 140 140 140 124 124 124 115 115 115 112 112 112 110 110 110 106 106 106 105 105 105 112 112 112 122 122 122 128 128 128 133 133 133 142 142 142 149 149 149 149 149 149 146 146 146 146 146 146 151 151 151 
151 151 151 151 151 151 150 150 150 146 146 146 143 143 143 146 146 146 149 149 149 147 147 147 137 137 137 122 122 122 112 112 112 113 113 113 119 119 119 125 125 125 129 129 129 126 126 126 120 120 120 120 120 120 124 124 124 127 127 127 123 123 123 113 113 113 108 108 108 114 114 114 126 126 126 140 140 140 149 149 149 150 150 150 145 145 145 144 144 144 148 148 148 154 154 154 158 158 158 157 157 157 155 155 155 157 157 157 161 161 161 167 167 167 172 172 172 173 173 173 170 170 170 161 161 161 153 153 153 151 151 151 154 154 154 157 157 157 152 152 152 137 137 137 120 120 120 110 110 110 106 106 106 103 103 103 98 98 98 96 96 96 100 100 100 110 110 110 117 117 117 124 124 124 135 135 135 143 143 143 145 145 145 143 143 143 144 144 144 148 148 148 
140 140 140 139 139 139 138 138 138 136 136 136 138 138 138 146 146 146 153 153 153 152 152 152 142 142 142 129 129 129 123 123 123 125 125 125 128 128 128 129 129 129 127 127 127 122 122 122 118 118 118 120 120 120 125 125 125 129 129 129 126 126 126 119 119 119 116 116 116 120 120 120 128 128 128 138 138 138 147 147 147 149 149 149 147 147 147 145 145 145 146 146 146 153 153 153 159 159 159 160 160 160 157 157 157 156 156 156 159 159 159 168 168 168 177 177 177 178 178 178 173 173 173 162 162 162 153 153 153 151 151 151 154 154 154 158 158 158 154 154 154 139 139 139 122 122 122 111 111 111 104 104 104 100 100 100 94 94 94 89 89 89 91 91 91 100 100 100 109 109 109 119 119 119 130 130 130 137 137 137 141 141 141 140 140 140 139 139 139 139 139 139 
130 130 130 129 129 129 129 129 129 132 132 132 139 139 139 153 153 153 162 162 162 160 160 160 149 149 149 138 138 138 133 133 133 133 133 133 133 133 133 128 128 128 123 123 123 119 119 119 117 117 117 120 120 120 124 124 124 125 125 125 122 122 122 119 119 119 119 119 119 121 121 121 124 124 124 131 131 131 139 139 139 144 144 144 144 144 144 139 139 139 138 138 138 143 143 143 152 152 152 156 156 156 155 155 155 154 154 154 158 158 158 168 168 168 176 176 176 174 174 174 165 165 165 154 154 154 146 146 146 146 146 146 151 151 151 157 157 157 156 156 156 144 144 144 128 128 128 116 116 116 109 109 109 104 104 104 98 98 98 90 90 90 88 88 88 95 95 95 106 106 106 117 117 117 125 125 125 130 130 130 134 134 134 136 136 136 133 133 133 130 130 130 
126 126 126 126 126 126 127 127 127 132 132 132 143 143 143 158 158 158 168 168 168 166 166 166 156 156 156 145 145 145 137 137 137 133 133 133 130 130 130 125 125 125 121 121 121 120 120 120 122 122 122 123 123 123 122 122 122 118 118 118 114 114 114 113 113 113 114 114 114 115 115 115 116 116 116 121 121 121 129 129 129 135 135 135 136 136 136 131 131 131 128 128 128 133 133 133 143 143 143 148 148 148 147 147 147 147 147 147 151 151 151 162 162 162 168 168 168 164 164 164 155 155 155 144 144 144 137 137 137 140 140 140 148 148 148 155 155 155 157 157 157 147 147 147 133 133 133 123 123 123 117 117 117 114 114 114 109 109 109 97 97 97 91 91 91 94 94 94 105 105 105 114 114 114 120 120 120 122 122 122 125 125 125 128 128 128 128 128 128 126 126 126 
131 131 131 131 131 131 131 131 131 134 134 134 142 142 142 156 156 156 166 166 166 166 166 166 158 158 158 146 146 146 135 135 135 129 129 129 126 126 126 124 124 124 125 125 125 128 128 128 131 131 131 129 129 129 122 122 122 112 112 112 104 104 104 102 102 102 103 103 103 105 105 105 107 107 107 114 114 114 124 124 124 131 131 131 132 132 132 126 126 126 122 122 122 125 125 125 133 133 133 137 137 137 138 138 138 139 139 139 143 143 143 152 152 152 156 156 156 151 151 151 143 143 143 136 136 136 134 134 134 138 138 138 144 144 144 148 148 148 148 148 148 141 141 141 130 130 130 123 123 123 121 121 121 120 120 120 116 116 116 105 105 105 97 97 97 95 95 95 102 102 102 110 110 110 115 115 115 118 118 118 121 121 121 124 124 124 127 127 127 129 129 129 
133 133 133 136 136 136 136 136 136 135 135 135 137 137 137 146 146 146 156 156 156 159 159 159 153 153 153 141 141 141 130 130 130 127 127 127 127 127 127 128 128 128 131 131 131 134 134 134 136 136 136 134 134 134 123 123 123 109 109 109 99 99 99 94 94 94 93 93 93 97 97 97 102 102 102 112 112 112 124 124 124 131 131 131 132 132 132 126 126 126 120 120 120 120 120 120 123 123 123 127 127 127 131 131 131 136 136 136 140 140 140 143 143 143 143 143 143 140 140 140 136 136 136 134 134 134 135 135 135 138 138 138 139 139 139 137 137 137 134 134 134 130 130 130 125 125 125 122 122 122 121 121 121 121 121 121 119 119 119 113 113 113 107 107 107 103 103 103 103 103 103 108 108 108 115 115 115 121 121 121 125 125 125 126 126 126 126 126 126 130 130 130 
131 131 131 136 136 136 139 139 139 135 135 135 131 131 131 135 135 135 143 143 143 148 148 148 144 144 144 133 133 133 124 124 124 125 125 125 129 129 129 132 132 132 133 133 133 133 133 133 133 133 133 132 132 132 126 126 126 114 114 114 104 104 104 96 96 96 92 92 92 96 96 96 104 104 104 116 116 116 127 127 127 132 132 132 130 130 130 126 126 126 123 123 123 121 121 121 121 121 121 123 123 123 129 129 129 134 134 134 136 136 136 136 136 136 136 136 136 137 137 137 138 138 138 141 141 141 143 143 143 142 142 142 136 136 136 128 128 128 122 122 122 122 122 122 125 125 125 124 124 124 122 122 122 121 121 121 120 120 120 121 121 121 121 121 121 115 115 115 110 110 110 111 111 111 119 119 119 127 127 127 131 131 131 128 128 128 125 125 125 127 127 127 
128 128 128 134 134 134 139 139 139 135 135 135 127 127 127 127 127 127 133 133 133 138 138 138 136 136 136 125 125 125 118 118 118 121 121 121 129 129 129 133 133 133 133 133 133 129 129 129 128 128 128 130 130 130 129 129 129 123 123 123 113 113 113 102 102 102 96 96 96 98 98 98 107 107 107 118 118 118 126 126 126 127 127 127 124 124 124 124 124 124 125 125 125 127 127 127 128 128 128 128 128 128 130 130 130 132 132 132 132 132 132 133 133 133 136 136 136 143 143 143 148 148 148 152 152 152 154 154 154 149 149 149 138 138 138 126 126 126 120 120 120 122 122 122 128 128 128 128 128 128 125 125 125 123 123 123 124 124 124 129 129 129 132 132 132 126 126 126 118 118 118 117 117 117 122 122 122 129 129 129 132 132 132 127 127 127 122 122 122 123 123 123 
124 124 124 130 130 130 135 135 135 132 132 132 126 126 126 125 125 125 127 127 127 130 130 130 128 128 128 119 119 119 112 112 112 115 115 115 122 122 122 129 129 129 131 131 131 131 131 131 130 130 130 133 133 133 132 132 132 127 127 127 118 118 118 108 108 108 102 102 102 102 102 102 108 108 108 116 116 116 122 122 122 123 123 123 122 122 122 124 124 124 129 129 129 133 133 133 134 134 134 132 132 132 132 132 132 132 132 132 132 132 132 134 134 134 139 139 139 147 147 147 154 154 154 157 157 157 157 157 157 149 149 149 137 137 137 125 125 125 119 119 119 121 121 121 125 125 125 126 126 126 126 126 126 127 127 127 129 129 129 133 133 133 136 136 136 133 133 133 127 127 127 125 125 125 125 125 125 125 125 125 124 124 124 119 119 119 115 115 115 118 118 118 
119 119 119 124 124 124 127 127 127 125 125 125 123 123 123 122 122 122 120 120 120 118 118 118 118 118 118 114 114 114 110 110 110 110 110 110 117 117 117 125 125 125 132 132 132 136 136 136 139 139 139 139 139 139 135 135 135 127 127 127 119 119 119 114 114 114 111 111 111 109 109 109 109 109 109 112 112 112 118 118 118 123 123 123 126 126 126 130 130 130 135 135 135 137 137 137 135 135 135 133 133 133 133 133 133 135 135 135 137 137 137 137 137 137 139 139 139 144 144 144 150 150 150 154 154 154 153 153 153 144 144 144 131 131 131 120 120 120 114 114 114 115 115 115 116 116 116 117 117 117 121 121 121 125 125 125 127 127 127 128 128 128 130 130 130 131 131 131 132 132 132 132 132 132 129 129 129 123 123 123 118 118 118 112 112 112 108 108 108 112 112 112 
115 115 115 118 118 118 118 118 118 116 116 116 116 116 116 117 117 117 112 112 112 109 109 109 110 110 110 112 112 112 112 112 112 112 112 112 118 118 118 127 127 127 135 135 135 141 141 141 145 145 145 144 144 144 135 135 135 125 125 125 119 119 119 119 119 119 119 119 119 113 113 113 107 107 107 107 107 107 114 114 114 124 124 124 131 131 131 136 136 136 139 139 139 139 139 139 135 135 135 130 130 130 131 131 131 135 135 135 139 139 139 138 138 138 136 136 136 138 138 138 143 143 143 148 148 148 148 148 148 139 139 139 125 125 125 116 116 116 111 111 111 110 110 110 108 108 108 108 108 108 113 113 113 117 117 117 117 117 117 114 114 114 115 115 115 121 121 121 128 128 128 133 133 133 133 133 133 126 126 126 119 119 119 111 111 111 106 106 106 108 108 108 
112 112 112 114 114 114 111 111 111 108 108 108 109 109 109 111 111 111 107 107 107 104 104 104 106 106 106 112 112 112 115 115 115 118 118 118 124 124 124 132 132 132 137 137 137 141 141 141 144 144 144 142 142 142 133 133 133 124 124 124 120 120 120 123 123 123 123 123 123 115 115 115 106 106 106 104 104 104 110 110 110 121 121 121 130 130 130 136 136 136 141 141 141 141 141 141 136 136 136 130 130 130 128 128 128 130 130 130 133 133 133 132 132 132 132 132 132 134 134 134 140 140 140 145 145 145 146 146 146 137 137 137 124 124 124 116 116 116 112 112 112 110 110 110 106 106 106 104 104 104 107 107 107 108 108 108 106 106 106 100 100 100 100 100 100 108 108 108 118 118 118 127 127 127 132 132 132 129 129 129 122 122 122 112 112 112 105 105 105 105 105 105 
108 108 108 111 111 111 107 107 107 102 102 102 102 102 102 105 105 105 104 104 104 105 105 105 110 110 110 115 115 115 118 118 118 119 119 119 124 124 124 131 131 131 134 134 134 137 137 137 139 139 139 138 138 138 133 133 133 129 129 129 127 127 127 127 127 127 123 123 123 113 113 113 104 104 104 103 103 103 107 107 107 114 114 114 121 121 121 127 127 127 135 135 135 139 139 139 136 136 136 129 129 129 125 125 125 125 125 125 127 127 127 127 127 127 128 128 128 131 131 131 136 136 136 143 143 143 145 145 145 139 139 139 128 128 128 120 120 120 116 116 116 113 113 113 108 108 108 105 105 105 105 105 105 104 104 104 100 100 100 93 93 93 91 91 91 96 96 96 105 105 105 115 115 115 123 123 123 125 125 125 121 121 121 111 111 111 103 103 103 102 102 102 
105 105 105 109 109 109 106 106 106 100 100 100 98 98 98 101 101 101 104 104 104 109 109 109 115 115 115 120 120 120 121 121 121 119 119 119 119 119 119 124 124 124 129 129 129 134 134 134 136 136 136 135 135 135 132 132 132 130 130 130 129 129 129 126 126 126 119 119 119 109 109 109 103 103 103 103 103 103 106 106 106 111 111 111 116 116 116 121 121 121 127 127 127 130 130 130 128 128 128 125 125 125 123 123 123 124 124 124 126 126 126 125 125 125 125 125 125 126 126 126 129 129 129 136 136 136 142 142 142 139 139 139 131 131 131 122 122 122 116 116 116 113 113 113 108 108 108 105 105 105 105 105 105 103 103 103 98 98 98 90 90 90 86 86 86 89 89 89 97 97 97 104 104 104 111 111 111 115 115 115 115 115 115 109 109 109 102 102 102 100 100 100 
103 103 103 110 110 110 111 111 111 107 107 107 104 104 104 105 105 105 107 107 107 111 111 111 117 117 117 121 121 121 121 121 121 117 117 117 114 114 114 117 117 117 122 122 122 128 128 128 130 130 130 127 127 127 125 125 125 124 124 124 122 122 122 118 118 118 112 112 112 107 107 107 106 106 106 109 109 109 113 113 113 117 117 117 120 120 120 122 122 122 123 123 123 123 123 123 121 121 121 120 120 120 120 120 120 122 122 122 125 125 125 125 125 125 123 123 123 123 123 123 125 125 125 132 132 132 138 138 138 136 136 136 128 128 128 121 121 121 116 116 116 114 114 114 111 111 111 108 108 108 108 108 108 105 105 105 98 98 98 91 91 91 88 88 88 92 92 92 99 99 99 102 102 102 104 104 104 108 108 108 111 111 111 109 109 109 103 103 103 100 100 100 
106 106 106 115 115 115 120 120 120 118 118 118 116 116 116 114 114 114 111 111 111 111 111 111 114 114 114 119 119 119 122 122 122 119 119 119 114 114 114 113 113 113 115 115 115 118 118 118 118 118 118 115 115 115 113 113 113 111 111 111 109 109 109 107 107 107 107 107 107 109 109 109 113 113 113 117 117 117 122 122 122 126 126 126 129 129 129 129 129 129 126 126 126 123 123 123 120 120 120 119 119 119 118 118 118 118 118 118 120 120 120 122 122 122 123 123 123 125 125 125 128 128 128 134 134 134 138 138 138 134 134 134 125 125 125 120 120 120 119 119 119 121 121 121 119 119 119 116 116 116 114 114 114 108 108 108 100 100 100 93 93 93 94 94 94 101 101 101 109 109 109 109 109 109 108 108 108 109 109 109 114 114 114 113 113 113 108 108 108 103 103 103 
108 108 108 116 116 116 123 123 123 124 124 124 123 123 123 119 119 119 113 113 113 110 110 110 112 112 112 118 118 118 121 121 121 120 120 120 115 115 115 111 111 111 108 108 108 106 106 106 105 105 105 103 103 103 100 100 100 96 96 96 94 94 94 95 95 95 102 102 102 111 111 111 119 119 119 123 123 123 127 127 127 131 131 131 134 134 134 135 135 135 132 132 132 128 128 128 126 126 126 123 123 123 118 118 118 115 115 115 116 116 116 121 121 121 128 128 128 134 134 134 138 138 138 141 141 141 141 141 141 135 135 135 126 126 126 122 122 122 125 125 125 131 131 131 133 133 133 128 128 128 122 122 122 114 114 114 105 105 105 101 101 101 105 105 105 114 114 114 123 123 123 124 124 124 122 122 122 123 123 123 127 127 127 124 124 124 115 115 115 107 107 107 
109 109 109 115 115 115 122 122 122 125 125 125 124 124 124 120 120 120 114 114 114 112 112 112 116 116 116 121 121 121 122 122 122 117 117 117 113 113 113 107 107 107 101 101 101 98 98 98 97 97 97 97 97 97 93 93 93 87 87 87 83 83 83 86 86 86 95 95 95 109 109 109 119 119 119 124 124 124 126 126 126 129 129 129 133 133 133 135 135 135 132 132 132 129 129 129 127 127 127 125 125 125 120 120 120 116 116 116 117 117 117 124 124 124 133 133 133 139 139 139 141 141 141 141 141 141 140 140 140 134 134 134 127 127 127 123 123 123 127 127 127 136 136 136 140 140 140 136 136 136 128 128 128 119 119 119 113 113 113 113 113 113 118 118 118 127 127 127 134 134 134 136 136 136 136 136 136 136 136 136 138 138 138 134 134 134 123 123 123 112 112 112 
114 114 114 117 117 117 121 121 121 123 123 123 123 123 123 119 119 119 115 115 115 118 118 118 125 125 125 128 128 128 124 124 124 117 117 117 111 111 111 106 106 106 99 99 99 95 95 95 97 97 97 99 99 99 97 97 97 91 91 91 86 86 86 87 87 87 92 92 92 102 102 102 112 112 112 117 117 117 118 118 118 119 119 119 123 123 123 127 127 127 125 125 125 121 121 121 120 120 120 121 121 121 120 120 120 117 117 117 119 119 119 126 126 126 133 133 133 136 136 136 134 134 134 133 133 133 133 133 133 132 132 132 126 126 126 121 121 121 123 123 123 130 130 130 136 136 136 134 134 134 127 127 127 121 121 121 120 120 120 123 123 123 126 126 126 130 130 130 135 135 135 139 139 139 140 140 140 141 141 141 142 142 142 138 138 138 129 129 129 119 119 119 
123 123 123 123 123 123 125 125 125 126 126 126 125 125 125 121 121 121 119 119 119 124 124 124 132 132 132 134 134 134 129 129 129 121 121 121 115 115 115 110 110 110 101 101 101 96 96 96 98 98 98 104 104 104 105 105 105 100 100 100 97 97 97 95 95 95 94 94 94 98 98 98 106 106 106 110 110 110 109 109 109 109 109 109 114 114 114 117 117 117 116 116 116 112 112 112 112 112 112 115 115 115 116 116 116 115 115 115 116 116 116 122 122 122 127 127 127 126 126 126 122 122 122 122 122 122 125 125 125 126 126 126 123 123 123 116 116 116 115 115 115 120 120 120 127 127 127 126 126 126 122 122 122 120 120 120 122 122 122 125 125 125 126 126 126 126 126 126 129 129 129 135 135 135 138 138 138 139 139 139 139 139 139 138 138 138 133 133 133 127 127 127 
135 135 135 131 131 131 129 129 129 127 127 127 126 126 126 123 123 123 121 121 121 124 124 124 132 132 132 136 136 136 135 135 135 129 129 129 124 124 124 117 117 117 107 107 107 102 102 102 103 103 103 110 110 110 114 114 114 113 113 113 110 110 110 106 106 106 100 100 100 99 99 99 103 103 103 105 105 105 105 105 105 107 107 107 112 112 112 115 115 115 112 112 112 108 108 108 107 107 107 110 110 110 111 111 111 110 110 110 110 110 110 114 114 114 119 119 119 120 120 120 117 117 117 117 117 117 119 119 119 120 120 120 116 116 116 109 109 109 106 106 106 111 111 111 119 119 119 120 120 120 118 118 118 116 116 116 117 117 117 121 121 121 122 122 122 123 123 123 128 128 128 133 133 133 135 135 135 135 135 135 134 134 134 135 135 135 137 137 137 137 137 137 
141 141 141 133 133 133 124 124 124 120 120 120 121 121 121 121 121 121 120 120 120 121 121 121 127 127 127 135 135 135 138 138 138 135 135 135 129 129 129 121 121 121 112 112 112 110 110 110 113 113 113 120 120 120 125 125 125 125 125 125 122 122 122 117 117 117 110 110 110 105 105 105 106 106 106 106 106 106 106 106 106 109 109 109 116 116 116 119 119 119 116 116 116 110 110 110 106 106 106 110 110 110 113 113 113 113 113 113 110 110 110 110 110 110 115 115 115 119 119 119 118 118 118 117 117 117 118 118 118 117 117 117 113 113 113 104 104 104 100 100 100 106 106 106 116 116 116 120 120 120 119 119 119 116 116 116 115 115 115 116 116 116 118 118 118 122 122 122 129 129 129 136 136 136 138 138 138 135 135 135 131 131 131 133 133 133 139 139 139 143 143 143 
136 136 136 125 125 125 114 114 114 110 110 110 114 114 114 117 117 117 117 117 117 118 118 118 123 123 123 133 133 133 139 139 139 136 136 136 129 129 129 120 120 120 115 115 115 117 117 117 122 122 122 128 128 128 133 133 133 132 132 132 127 127 127 123 123 123 120 120 120 119 119 119 119 119 119 115 115 115 112 112 112 115 115 115 122 122 122 127 127 127 126 126 126 120 120 120 115 115 115 118 118 118 123 123 123 123 123 123 118 118 118 114 114 114 117 117 117 121 121 121 122 122 122 121 121 121 122 122 122 120 120 120 115 115 115 106 106 106 102 102 102 108 108 108 120 120 120 127 127 127 128 128 128 124 124 124 120 120 120 119 119 119 119 119 119 123 123 123 131 131 131 141 141 141 145 145 145 142 142 142 137 137 137 137 137 137 140 140 140 141 141 141 
128 128 128 116 116 116 108 108 108 107 107 107 113 113 113 117 117 117 117 117 117 118 118 118 122 122 122 132 132 132 138 138 138 135 135 135 127 127 127 120 120 120 116 116 116 121 121 121 128 128 128 133 133 133 137 137 137 134 134 134 128 128 128 127 127 127 130 130 130 134 134 134 135 135 135 128 128 128 121 121 121 121 121 121 126 126 126 132 132 132 134 134 134 132 132 132 128 128 128 130 130 130 134 134 134 133 133 133 127 127 127 121 121 121 121 121 121 123 123 123 124 124 124 124 124 124 126 126 126 127 127 127 122 122 122 112 112 112 108 108 108 115 115 115 128 128 128 136 136 136 139 139 139 135 135 135 130 130 130 125 125 125 121 121 121 121 121 121 129 129 129 141 141 141 150 150 150 150 150 150 147 147 147 144 144 144 140 140 140 135 135 135 
127 127 127 117 117 117 113 113 113 116 116 116 122 122 122 124 124 124 124 124 124 124 124 124 127 127 127 133 133 133 135 135 135 131 131 131 126 126 126 122 122 122 119 119 119 123 123 123 127 127 127 133 133 133 138 138 138 137 137 137 133 133 133 133 133 133 140 140 140 147 147 147 149 149 149 139 139 139 127 127 127 122 122 122 125 125 125 131 131 131 138 138 138 139 139 139 138 138 138 139 139 139 140 140 140 139 139 139 134 134 134 130 130 130 129 129 129 129 129 129 129 129 129 129 129 129 130 130 130 130 130 130 126 126 126 119 119 119 117 117 117 124 124 124 135 135 135 142 142 142 146 146 146 144 144 144 140 140 140 133 133 133 124 124 124 121 121 121 125 125 125 136 136 136 146 146 146 150 150 150 151 151 151 150 150 150 145 145 145 137 137 137 
132 132 132 123 123 123 121 121 121 125 125 125 129 129 129 130 130 130 131 131 131 132 132 132 132 132 132 131 131 131 128 128 128 125 125 125 125 125 125 126 126 126 127 127 127 127 127 127 128 128 128 133 133 133 140 140 140 143 143 143 141 141 141 142 142 142 149 149 149 157 157 157 158 158 158 146 146 146 132 132 132 125 125 125 126 126 126 132 132 132 138 138 138 141 141 141 141 141 141 141 141 141 140 140 140 139 139 139 139 139 139 140 140 140 140 140 140 139 139 139 138 138 138 137 137 137 133 133 133 130 130 130 126 126 126 125 125 125 127 127 127 132 132 132 137 137 137 142 142 142 145 145 145 145 145 145 142 142 142 136 136 136 128 128 128 123 123 123 124 124 124 129 129 129 136 136 136 143 143 143 149 149 149 153 153 153 152 152 152 144 144 144 
138 138 138 129 129 129 126 126 126 128 128 128 129 129 129 130 130 130 133 133 133 135 135 135 133 133 133 127 127 127 122 122 122 123 123 123 128 128 128 135 135 135 138 138 138 138 138 138 135 135 135 137 137 137 145 145 145 150 150 150 148 148 148 149 149 149 155 155 155 160 160 160 159 159 159 147 147 147 136 136 136 132 132 132 133 133 133 135 135 135 136 136 136 135 135 135 134 134 134 133 133 133 131 131 131 133 133 133 138 138 138 144 144 144 146 146 146 145 145 145 145 145 145 142 142 142 135 135 135 129 129 129 127 127 127 130 130 130 133 133 133 134 134 134 133 133 133 133 133 133 135 135 135 136 136 136 134 134 134 130 130 130 126 126 126 123 123 123 121 121 121 120 120 120 122 122 122 131 131 131 142 142 142 153 153 153 157 157 157 151 151 151 
139 139 139 129 129 129 125 125 125 125 125 125 124 124 124 125 125 125 130 130 130 134 134 134 131 131 131 124 124 124 121 121 121 126 126 126 135 135 135 143 143 143 148 148 148 147 147 147 143 143 143 144 144 144 149 149 149 152 152 152 150 150 150 150 150 150 154 154 154 158 158 158 156 156 156 147 147 147 139 139 139 139 139 139 142 142 142 140 140 140 134 134 134 126 126 126 122 122 122 120 120 120 120 120 120 123 123 123 132 132 132 141 141 141 144 144 144 143 143 143 142 142 142 139 139 139 134 134 134 130 130 130 131 131 131 134 134 134 135 135 135 130 130 130 123 123 123 121 121 121 122 122 122 123 123 123 122 122 122 120 120 120 119 119 119 118 118 118 116 116 116 111 111 111 112 112 112 122 122 122 137 137 137 151 151 151 158 158 158 152 152 152 
131 131 131 123 123 123 119 119 119 120 120 120 120 120 120 124 124 124 132 132 132 136 136 136 134 134 134 127 127 127 123 123 123 128 128 128 135 135 135 142 142 142 149 149 149 150 150 150 147 147 147 146 146 146 146 146 146 146 146 146 144 144 144 144 144 144 148 148 148 152 152 152 152 152 152 147 147 147 145 145 145 147 147 147 149 149 149 143 143 143 133 133 133 122 122 122 117 117 117 116 116 116 115 115 115 117 117 117 123 123 123 131 131 131 136 136 136 137 137 137 136 136 136 134 134 134 132 132 132 130 130 130 131 131 131 133 133 133 132 132 132 126 126 126 119 119 119 115 115 115 115 115 115 116 116 116 115 115 115 112 112 112 112 112 112 113 113 113 112 112 112 109 109 109 112 112 112 121 121 121 134 134 134 145 145 145 148 148 148 142 142 142 
125 125 125 119 119 119 116 116 116 117 117 117 120 120 120 129 129 129 138 138 138 142 142 142 139 139 139 131 131 131 125 125 125 126 126 126 130 130 130 136 136 136 144 144 144 146 146 146 144 144 144 140 140 140 136 136 136 136 136 136 137 137 137 138 138 138 140 140 140 142 142 142 144 144 144 147 147 147 152 152 152 154 154 154 152 152 152 143 143 143 131 131 131 123 123 123 120 120 120 119 119 119 117 117 117 115 115 115 116 116 116 122 122 122 128 128 128 133 133 133 134 134 134 132 132 132 130 130 130 127 127 127 126 126 126 127 127 127 128 128 128 126 126 126 120 120 120 116 116 116 116 116 116 117 117 117 114 114 114 110 110 110 109 109 109 113 113 113 115 115 115 116 116 116 120 120 120 125 125 125 130 130 130 134 134 134 134 134 134 131 131 131 
126 126 126 121 121 121 117 117 117 118 118 118 124 124 124 136 136 136 145 145 145 147 147 147 141 141 141 133 133 133 125 125 125 123 123 123 124 124 124 130 130 130 137 137 137 139 139 139 136 136 136 129 129 129 125 125 125 128 128 128 134 134 134 135 135 135 134 134 134 134 134 134 138 138 138 148 148 148 156 156 156 156 156 156 149 149 149 138 138 138 128 128 128 125 125 125 125 125 125 127 127 127 126 126 126 122 122 122 117 117 117 118 118 118 122 122 122 128 128 128 130 130 130 129 129 129 127 127 127 124 124 124 121 121 121 122 122 122 126 126 126 128 128 128 124 124 124 120 120 120 122 122 122 123 123 123 120 120 120 113 113 113 110 110 110 115 115 115 120 120 120 125 125 125 129 129 129 129 129 129 127 127 127 125 125 125 124 124 124 126 126 126 
131 131 131 127 127 127 120 120 120 119 119 119 126 126 126 138 138 138 146 146 146 144 144 144 137 137 137 129 129 129 123 123 123 123 123 123 125 125 125 129 129 129 134 134 134 133 133 133 128 128 128 122 122 122 120 120 120 126 126 126 135 135 135 136 136 136 133 133 133 130 130 130 135 135 135 148 148 148 156 156 156 153 153 153 144 144 144 133 133 133 126 126 126 126 126 126 128 128 128 131 131 131 134 134 134 130 130 130 124 124 124 120 120 120 118 118 118 120 120 120 121 121 121 121 121 121 123 123 123 123 123 123 121 121 121 122 122 122 126 126 126 129 129 129 125 125 125 122 122 122 126 126 126 129 129 129 126 126 126 117 117 117 111 111 111 114 114 114 120 120 120 127 127 127 133 133 133 131 131 131 125 125 125 122 122 122 122 122 122 127 127 127 
130 130 130 126 126 126 120 120 120 118 118 118 124 124 124 134 134 134 139 139 139 135 135 135 128 128 128 123 123 123 121 121 121 122 122 122 124 124 124 127 127 127 132 132 132 131 131 131 127 127 127 122 122 122 121 121 121 128 128 128 136 136 136 137 137 137 134 134 134 131 131 131 135 135 135 145 145 145 150 150 150 146 146 146 140 140 140 134 134 134 130 130 130 130 130 130 130 130 130 133 133 133 137 137 137 137 137 137 132 132 132 124 124 124 116 116 116 112 112 112 110 110 110 114 114 114 122 122 122 128 128 128 129 129 129 129 129 129 131 131 131 131 131 131 127 127 127 125 125 125 128 128 128 129 129 129 126 126 126 116 116 116 109 109 109 110 110 110 116 116 116 122 122 122 128 128 128 128 128 128 124 124 124 122 122 122 122 122 122 127 127 127 
124 124 124 122 122 122 118 118 118 117 117 117 124 124 124 132 132 132 133 133 133 128 128 128 124 124 124 123 123 123 121 121 121 119 119 119 117 117 117 120 120 120 125 125 125 128 128 128 126 126 126 121 121 121 120 120 120 126 126 126 133 133 133 134 134 134 131 131 131 128 128 128 132 132 132 139 139 139 140 140 140 137 137 137 136 136 136 139 139 139 141 141 141 140 140 140 135 135 135 133 133 133 135 135 135 136 136 136 134 134 134 125 125 125 113 113 113 107 107 107 106 106 106 114 114 114 125 125 125 132 132 132 133 133 133 133 133 133 134 134 134 134 134 134 132 132 132 130 130 130 131 131 131 130 130 130 125 125 125 116 116 116 109 109 109 110 110 110 116 116 116 121 121 121 124 124 124 124 124 124 123 123 123 123 123 123 122 122 122 122 122 122 
118 118 118 117 117 117 115 115 115 116 116 116 124 124 124 131 131 131 130 130 130 127 127 127 127 127 127 129 129 129 125 125 125 118 118 118 111 111 111 112 112 112 118 118 118 122 122 122 121 121 121 116 116 116 114 114 114 118 118 118 124 124 124 125 125 125 123 123 123 120 120 120 123 123 123 128 128 128 129 129 129 131 131 131 137 137 137 147 147 147 153 153 153 149 149 149 139 139 139 131 131 131 127 127 127 127 127 127 126 126 126 118 118 118 109 109 109 105 105 105 108 108 108 118 118 118 127 127 127 130 130 130 128 128 128 128 128 128 130 130 130 134 134 134 134 134 134 133 133 133 134 134 134 132 132 132 127 127 127 119 119 119 112 112 112 114 114 114 120 120 120 123 123 123 122 122 122 121 121 121 123 123 123 125 125 125 122 122 122 118 118 118 
118 118 118 117 117 117 115 115 115 117 117 117 124 124 124 132 132 132 132 132 132 131 131 131 133 133 133 136 136 136 132 132 132 122 122 122 113 113 113 112 112 112 114 114 114 115 115 115 114 114 114 108 108 108 105 105 105 108 108 108 114 114 114 116 116 116 113 113 113 110 110 110 113 113 113 119 119 119 123 123 123 129 129 129 140 140 140 153 153 153 158 158 158 150 150 150 137 137 137 124 124 124 116 116 116 113 113 113 112 112 112 106 106 106 102 102 102 103 103 103 111 111 111 121 121 121 127 127 127 124 124 124 120 120 120 119 119 119 122 122 122 127 127 127 129 129 129 131 131 131 135 135 135 136 136 136 132 132 132 123 123 123 117 117 117 118 118 118 125 125 125 127 127 127 124 124 124 121 121 121 124 124 124 127 127 127 124 124 124 119 119 119 
124 124 124 123 123 123 119 119 119 118 118 118 125 125 125 134 134 134 139 139 139 140 140 140 140 140 140 140 140 140 136 136 136 129 129 129 123 123 123 119 119 119 114 114 114 110 110 110 106 106 106 103 103 103 102 102 102 104 104 104 108 108 108 110 110 110 108 108 108 107 107 107 109 109 109 115 115 115 124 124 124 134 134 134 145 145 145 153 153 153 153 153 153 142 142 142 128 128 128 117 117 117 107 107 107 102 102 102 98 98 98 95 95 95 95 95 95 103 103 103 114 114 114 124 124 124 127 127 127 121 121 121 114 114 114 111 111 111 112 112 112 115 115 115 117 117 117 122 122 122 132 132 132 139 139 139 139 139 139 131 131 131 124 124 124 124 124 124 128 128 128 129 129 129 126 126 126 122 122 122 124 124 124 126 126 126 125 125 125 123 123 123 
128 128 128 128 128 128 123 123 123 121 121 121 127 127 127 140 140 140 149 149 149 150 150 150 147 147 147 141 141 141 135 135 135 131 131 131 130 130 130 125 125 125 116 116 116 108 108 108 106 106 106 108 108 108 110 110 110 110 110 110 109 109 109 109 109 109 111 111 111 112 112 112 113 113 113 118 118 118 128 128 128 141 141 141 151 151 151 151 151 151 144 144 144 132 132 132 123 123 123 115 115 115 107 107 107 98 98 98 91 91 91 88 88 88 93 93 93 106 106 106 120 120 120 130 130 130 131 131 131 123 123 123 113 113 113 108 108 108 106 106 106 108 108 108 110 110 110 116 116 116 128 128 128 139 139 139 142 142 142 137 137 137 131 131 131 128 128 128 128 128 128 128 128 128 125 125 125 122 122 122 121 121 121 121 121 121 121 121 121 123 123 123 
128 128 128 130 130 130 128 128 128 127 127 127 134 134 134 148 148 148 158 158 158 158 158 158 149 149 149 137 137 137 128 128 128 126 126 126 129 129 129 126 126 126 119 119 119 113 113 113 115 115 115 122 122 122 127 127 127 124 124 124 118 118 118 117 117 117 121 121 121 124 124 124 123 123 123 125 125 125 134 134 134 145 145 145 151 151 151 145 145 145 135 135 135 127 127 127 123 123 123 120 120 120 114 114 114 103 103 103 92 92 92 88 88 88 93 93 93 108 108 108 123 123 123 133 133 133 136 136 136 129 129 129 119 119 119 112 112 112 110 110 110 112 112 112 115 115 115 118 118 118 125 125 125 132 132 132 135 135 135 133 133 133 129 129 129 124 124 124 121 121 121 121 121 121 122 122 122 121 121 121 121 121 121 119 119 119 117 117 117 121 121 121 
128 128 128 132 132 132 133 133 133 135 135 135 142 142 142 156 156 156 164 164 164 160 160 160 147 147 147 132 132 132 122 122 122 121 121 121 125 125 125 125 125 125 123 123 123 123 123 123 128 128 128 137 137 137 143 143 143 139 139 139 130 130 130 128 128 128 132 132 132 135 135 135 133 133 133 132 132 132 137 137 137 145 145 145 147 147 147 139 139 139 131 131 131 128 128 128 128 128 128 127 127 127 122 122 122 111 111 111 99 99 99 92 92 92 94 94 94 106 106 106 120 120 120 132 132 132 139 139 139 135 135 135 126 126 126 120 120 120 119 119 119 123 123 123 128 128 128 127 127 127 126 126 126 126 126 126 125 125 125 124 124 124 121 121 121 115 115 115 110 110 110 111 111 111 118 118 118 124 124 124 126 126 126 122 122 122 118 118 118 121 121 121 
126 126 126 130 130 130 136 136 136 142 142 142 150 150 150 160 160 160 165 165 165 161 161 161 150 150 150 136 136 136 123 123 123 120 120 120 123 123 123 126 126 126 128 128 128 131 131 131 135 135 135 143 143 143 149 149 149 148 148 148 142 142 142 140 140 140 142 142 142 144 144 144 141 141 141 139 139 139 142 142 142 146 146 146 146 146 146 139 139 139 133 133 133 131 131 131 130 130 130 128 128 128 123 123 123 114 114 114 104 104 104 97 97 97 96 96 96 104 104 104 115 115 115 127 127 127 136 136 136 137 137 137 130 130 130 124 124 124 125 125 125 130 130 130 134 134 134 131 131 131 125 125 125 119 119 119 115 115 115 113 113 113 112 112 112 107 107 107 103 103 103 105 105 105 113 113 113 123 123 123 129 129 129 127 127 127 123 123 123 122 122 122 
122 122 122 126 126 126 135 135 135 145 145 145 153 153 153 159 159 159 163 163 163 162 162 162 156 156 156 145 145 145 132 132 132 126 126 126 127 127 127 131 131 131 136 136 136 139 139 139 139 139 139 142 142 142 146 146 146 149 149 149 149 149 149 149 149 149 151 151 151 151 151 151 147 147 147 145 145 145 147 147 147 150 150 150 149 149 149 143 143 143 138 138 138 134 134 134 127 127 127 122 122 122 118 118 118 113 113 113 106 106 106 101 101 101 102 102 102 108 108 108 116 116 116 125 125 125 134 134 134 138 138 138 134 134 134 128 128 128 128 128 128 132 132 132 135 135 135 130 130 130 121 121 121 112 112 112 106 106 106 105 105 105 106 106 106 104 104 104 100 100 100 100 100 100 106 106 106 117 117 117 126 126 126 130 130 130 128 128 128 125 125 125 
123 123 123 124 124 124 132 132 132 141 141 141 147 147 147 149 149 149 154 154 154 158 158 158 159 159 159 152 152 152 143 143 143 138 138 138 139 139 139 144 144 144 148 148 148 148 148 148 143 143 143 139 139 139 139 139 139 142 142 142 146 146 146 149 149 149 152 152 152 151 151 151 147 147 147 146 146 146 149 149 149 151 151 151 150 150 150 146 146 146 141 141 141 133 133 133 122 122 122 113 113 113 110 110 110 108 108 108 105 105 105 103 103 103 109 109 109 118 118 118 124 124 124 130 130 130 137 137 137 142 142 142 140 140 140 134 134 134 132 132 132 134 134 134 135 135 135 130 130 130 122 122 122 113 113 113 107 107 107 106 106 106 106 106 106 104 104 104 100 100 100 97 97 97 100 100 100 109 109 109 122 122 122 132 132 132 135 135 135 130 130 130 
127 127 127 124 124 124 128 128 128 133 133 133 136 136 136 137 137 137 142 142 142 150 150 150 154 154 154 153 153 153 151 151 151 152 152 152 154 154 154 159 159 159 161 161 161 157 157 157 149 149 149 140 140 140 133 133 133 133 133 133 136 136 136 141 141 141 145 145 145 144 144 144 140 140 140 140 140 140 144 144 144 146 146 146 144 144 144 141 141 141 138 138 138 130 130 130 116 116 116 106 106 106 103 103 103 104 104 104 103 103 103 105 105 105 115 115 115 128 128 128 134 134 134 138 138 138 145 145 145 151 151 151 149 149 149 144 144 144 141 141 141 140 140 140 140 140 140 134 134 134 126 126 126 119 119 119 113 113 113 110 110 110 108 108 108 103 103 103 97 97 97 94 94 94 96 96 96 107 107 107 122 122 122 134 134 134 140 140 140 136 136 136 
126 126 126 124 124 124 124 124 124 125 125 125 125 125 125 126 126 126 131 131 131 139 139 139 144 144 144 146 146 146 153 153 153 160 160 160 164 164 164 167 167 167 167 167 167 162 162 162 156 156 156 144 144 144 131 131 131 124 124 124 125 125 125 130 130 130 134 134 134 133 133 133 129 129 129 130 130 130 134 134 134 137 137 137 135 135 135 131 131 131 129 129 129 122 122 122 110 110 110 100 100 100 97 97 97 99 99 99 100 100 100 104 104 104 117 117 117 130 130 130 136 136 136 141 141 141 150 150 150 157 157 157 157 157 157 152 152 152 151 151 151 152 152 152 151 151 151 142 142 142 130 130 130 120 120 120 114 114 114 111 111 111 107 107 107 100 100 100 93 93 93 91 91 91 96 96 96 109 109 109 122 122 122 133 133 133 137 137 137 134 134 134 
121 121 121 121 121 121 122 122 122 121 121 121 118 118 118 118 118 118 124 124 124 131 131 131 136 136 136 141 141 141 152 152 152 163 163 163 167 167 167 164 164 164 161 161 161 159 159 159 157 157 157 146 146 146 131 131 131 119 119 119 117 117 117 122 122 122 127 127 127 125 125 125 122 122 122 124 124 124 130 130 130 134 134 134 131 131 131 125 125 125 121 121 121 116 116 116 106 106 106 95 95 95 90 90 90 92 92 92 97 97 97 105 105 105 117 117 117 128 128 128 133 133 133 140 140 140 151 151 151 159 159 159 159 159 159 155 155 155 156 156 156 159 159 159 157 157 157 145 145 145 128 128 128 116 116 116 110 110 110 110 110 110 108 108 108 103 103 103 96 96 96 94 94 94 99 99 99 111 111 111 121 121 121 126 126 126 127 127 127 125 125 125 
117 117 117 120 120 120 123 123 123 120 120 120 114 114 114 115 115 115 122 122 122 130 130 130 135 135 135 140 140 140 151 151 151 161 161 161 162 162 162 154 154 154 148 148 148 148 148 148 151 151 151 144 144 144 131 131 131 119 119 119 117 117 117 124 124 124 129 129 129 128 128 128 124 124 124 127 127 127 134 134 134 138 138 138 133 133 133 126 126 126 121 121 121 115 115 115 106 106 106 95 95 95 88 88 88 91 91 91 99 99 99 109 109 109 120 120 120 127 127 127 132 132 132 141 141 141 152 152 152 159 159 159 159 159 159 155 155 155 155 155 155 156 156 156 152 152 152 138 138 138 122 122 122 111 111 111 107 107 107 110 110 110 114 114 114 112 112 112 106 106 106 103 103 103 108 108 108 116 116 116 123 123 123 122 122 122 119 119 119 117 117 117 
119 119 119 123 123 123 125 125 125 120 120 120 112 112 112 112 112 112 120 120 120 131 131 131 135 135 135 139 139 139 149 149 149 156 156 156 156 156 156 146 146 146 138 138 138 139 139 139 144 144 144 141 141 141 132 132 132 124 124 124 123 123 123 131 131 131 137 137 137 137 137 137 133 133 133 136 136 136 142 142 142 144 144 144 139 139 139 130 130 130 125 125 125 120 120 120 113 113 113 101 101 101 94 94 94 97 97 97 106 106 106 116 116 116 125 125 125 131 131 131 135 135 135 144 144 144 155 155 155 161 161 161 160 160 160 156 156 156 152 152 152 148 148 148 142 142 142 129 129 129 117 117 117 111 111 111 110 110 110 115 115 115 121 121 121 120 120 120 115 115 115 112 112 112 117 117 117 125 125 125 130 130 130 126 126 126 120 120 120 118 118 118 
119 119 119 122 122 122 122 122 122 116 116 116 107 107 107 107 107 107 117 117 117 129 129 129 136 136 136 139 139 139 146 146 146 149 149 149 148 148 148 141 141 141 136 136 136 136 136 136 139 139 139 137 137 137 132 132 132 127 127 127 127 127 127 134 134 134 140 140 140 141 141 141 138 138 138 138 138 138 141 141 141 142 142 142 136 136 136 130 130 130 127 127 127 126 126 126 121 121 121 112 112 112 106 106 106 108 108 108 115 115 115 122 122 122 128 128 128 132 132 132 135 135 135 144 144 144 154 154 154 160 160 160 161 161 161 157 157 157 150 150 150 143 143 143 136 136 136 127 127 127 119 119 119 116 116 116 115 115 115 120 120 120 126 126 126 127 127 127 124 124 124 123 123 123 128 128 128 136 136 136 140 140 140 135 135 135 126 126 126 120 120 120 
113 113 113 116 116 116 117 117 117 111 111 111 103 103 103 103 103 103 112 112 112 127 127 127 136 136 136 140 140 140 143 143 143 142 142 142 139 139 139 136 136 136 135 135 135 136 136 136 135 135 135 132 132 132 129 129 129 128 128 128 127 127 127 130 130 130 136 136 136 139 139 139 137 137 137 134 134 134 134 134 134 134 134 134 130 130 130 125 125 125 124 124 124 125 125 125 124 124 124 121 121 121 118 118 118 118 118 118 121 121 121 123 123 123 124 124 124 125 125 125 129 129 129 138 138 138 146 146 146 152 152 152 157 157 157 156 156 156 150 150 150 142 142 142 136 136 136 132 132 132 127 127 127 122 122 122 118 118 118 120 120 120 126 126 126 132 132 132 133 133 133 133 133 133 136 136 136 141 141 141 145 145 145 139 139 139 128 128 128 117 117 117 
109 109 109 112 112 112 113 113 113 109 109 109 102 102 102 100 100 100 106 106 106 119 119 119 130 130 130 136 136 136 139 139 139 137 137 137 135 135 135 136 136 136 138 138 138 137 137 137 132 132 132 127 127 127 126 126 126 126 126 126 123 123 123 122 122 122 128 128 128 133 133 133 133 133 133 129 129 129 127 127 127 128 128 128 127 127 127 122 122 122 118 118 118 118 118 118 120 120 120 122 122 122 122 122 122 119 119 119 119 119 119 118 118 118 116 116 116 117 117 117 124 124 124 131 131 131 137 137 137 143 143 143 151 151 151 155 155 155 151 151 151 145 145 145 142 142 142 142 142 142 138 138 138 129 129 129 120 120 120 119 119 119 123 123 123 130 130 130 135 135 135 135 135 135 135 135 135 137 137 137 139 139 139 135 135 135 125 125 125 114 114 114 
110 110 110 114 114 114 116 116 116 112 112 112 106 106 106 101 101 101 102 102 102 111 111 111 120 120 120 128 128 128 135 135 135 137 137 137 136 136 136 138 138 138 140 140 140 138 138 138 130 130 130 123 123 123 122 122 122 122 122 122 118 118 118 116 116 116 123 123 123 131 131 131 132 132 132 127 127 127 125 125 125 128 128 128 129 129 129 123 123 123 115 115 115 110 110 110 113 113 113 119 119 119 120 120 120 116 116 116 114 114 114 113 113 113 113 113 113 117 117 117 125 125 125 131 131 131 135 135 135 140 140 140 148 148 148 154 154 154 152 152 152 147 147 147 146 146 146 149 149 149 146 146 146 137 137 137 126 126 126 121 121 121 121 121 121 125 125 125 129 129 129 130 130 130 128 128 128 127 127 127 128 128 128 127 127 127 121 121 121 114 114 114 
113 113 113 118 118 118 121 121 121 119 119 119 114 114 114 108 108 108 106 106 106 110 110 110 116 116 116 124 124 124 135 135 135 141 141 141 142 142 142 141 141 141 141 141 141 138 138 138 130 130 130 123 123 123 119 119 119 117 117 117 115 115 115 116 116 116 125 125 125 134 134 134 137 137 137 132 132 132 129 129 129 130 130 130 131 131 131 124 124 124 113 113 113 107 107 107 109 109 109 117 117 117 119 119 119 116 116 116 113 113 113 114 114 114 118 118 118 127 127 127 137 137 137 141 141 141 140 140 140 140 140 140 145 145 145 149 149 149 147 147 147 144 144 144 143 143 143 145 145 145 144 144 144 137 137 137 129 129 129 123 123 123 119 119 119 119 119 119 120 120 120 119 119 119 117 117 117 116 116 116 117 117 117 118 118 118 116 116 116 114 114 114 
114 114 114 118 118 118 124 124 124 125 125 125 121 121 121 117 117 117 115 115 115 115 115 115 117 117 117 123 123 123 134 134 134 142 142 142 143 143 143 141 141 141 141 141 141 138 138 138 132 132 132 122 122 122 115 115 115 112 112 112 113 113 113 119 119 119 129 129 129 138 138 138 140 140 140 136 136 136 130 130 130 128 128 128 128 128 128 122 122 122 112 112 112 106 106 106 110 110 110 121 121 121 126 126 126 123 123 123 119 119 119 119 119 119 127 127 127 138 138 138 148 148 148 150 150 150 146 146 146 141 141 141 139 139 139 141 141 141 141 141 141 139 139 139 136 136 136 135 135 135 133 133 133 129 129 129 124 124 124 120 120 120 117 117 117 115 115 115 114 114 114 111 111 111 108 108 108 109 109 109 110 110 110 111 111 111 112 112 112 113 113 113 
117 117 117 120 120 120 124 124 124 125 125 125 122 122 122 120 120 120 120 120 120 120 120 120 119 119 119 121 121 121 129 129 129 136 136 136 136 136 136 134 134 134 135 135 135 135 135 135 131 131 131 120 120 120 111 111 111 109 109 109 114 114 114 122 122 122 130 130 130 135 135 135 137 137 137 135 135 135 128 128 128 125 125 125 125 125 125 122 122 122 115 115 115 112 112 112 118 118 118 131 131 131 140 140 140 138 138 138 132 132 132 131 131 131 135 135 135 144 144 144 152 152 152 154 154 154 150 150 150 143 143 143 137 137 137 136 136 136 136 136 136 135 135 135 130 130 130 125 125 125 121 121 121 120 120 120 117 117 117 116 116 116 117 117 117 116 116 116 113 113 113 109 109 109 107 107 107 110 110 110 113 113 113 114 114 114 115 115 115 116 116 116 
