P3
256 10
255
0 0 51 0 0 52 0 0 53 0 0 54 0 0 55 0 0 56 0 0 57 0 0 58 0 0 59 0 0 60 0 0 61 0 0 63 0 0 64 0 0 65 0 0 67 0 0 68 0 0 69 0 0 71 0 0 72 0 0 74 0 0 76 0 0 77 0 0 79 0 0 80 0 0 82 0 0 84 0 0 85 0 0 87 0 0 89 0 0 91 0 0 92 0 0 94 0 0 96 0 0 98 0 0 100 0 0 101 0 0 103 0 0 105 0 0 107 0 0 109 0 0 111 0 0 113 0 0 114 0 0 116 0 0 118 0 0 120 0 0 122 0 0 124 0 0 126 0 0 127 0 0 129 0 0 131 0 0 133 0 0 135 0 0 137 0 0 138 0 0 140 0 0 142 0 0 144 0 0 145 0 0 147 0 0 149 0 0 150 0 0 152 0 2 156 0 10 164 0 19 174 0 29 184 0 41 194 0 53 204 0 66 214 0 79 223 0 93 232 0 107 240 0 120 246 0 132 251 0 143 254 3 156 255 106 208 223 229 248 168 255 255 148 255 255 142 255 253 137 255 248 132 255 242 128 251 235 124 240 227 119 228 219 114 215 210 108 194 199 97 116 168 56 29 133 14 0 115 0 0 114 0 0 114 0 0 114 0 0 113 0 0 113 0 0 112 0 0 112 0 0 111 0 0 111 0 0 110 0 0 110 0 0 110 0 0 109 0 0 109 0 0 108 0 0 108 0 0 107 0 0 107 0 0 107 0 0 106 0 0 106 0 0 105 0 0 105 0 0 104 0 0 104 0 0 104 0 1 103 0 1 103 0 1 102 0 2 102 0 2 101 0 3 101 0 3 101 0 4 100 1 4 100 1 5 99 1 5 99 1 6 99 1 6 98 2 7 98 2 7 97 2 8 97 2 9 97 3 9 96 3 10 96 3 11 95 4 11 95 4 12 95 4 13 94 4 14 94 5 14 93 5 15 93 5 16 93 6 17 92 6 17 92 6 18 91 7 19 91 7 20 91 8 21 90 8 22 90 8 23 90 9 23 89 9 24 89 9 25 89 10 26 88 10 27 88 11 28 87 11 29 87 11 30 87 12 31 86 12 32 86 13 33 86 13 34 85 14 34 85 14 35 85 14 37 84 15 40 83 16 43 82 18 46 81 19 49 81 20 52 80 22 55 79 23 58 78 25 61 77 26 64 77 27 66 76 29 69 75 30 72 75 31 75 74 32 77 74 34 80 73 35 82 73 36 84 72 37 86 72 38 88 72 39 90 71 40 92 71 41 93 71 42 95 71 43 96 71 44 97 71 44 97 71 45 97 71 46 97 71 47 97 71 47 97 72 47 97 72 48 97 73 48 97 73 48 97 74 48 97 75 48 97 76 48 97 76 48 97 77 48 96 78 48 95 79 47 94 81 47 93 82 47 92 83 47 92 84 47 92 86 47 92 87 47 92 89 47 92 90 48 92 92 48 92 93 49 92 95 49 92 97 50 92 99 51 92 100 52 92 102 53 92 104 54 92 106 55 92 108 57 92 110 59 92 112 61 92 114 63 106 129 83 146 163 132 190 197 185 222 222 222 226 225 226 229 228 230 231 230 233 234 233 236 
236 235 238 238 237 240 240 239 242 242 240 244 244 242 246 245 243 247 246 245 248 247 246 249 248 247 250 249 248 250 250 249 251 251 250 251 251 251 252 252 251 252 252 252 253 253 253 253 254 254 254 254 254 254 
0 0 51 0 0 52 0 0 53 0 0 54 0 0 55 0 0 56 0 0 57 0 0 58 0 0 59 0 0 60 0 0 61 0 0 63 0 0 64 0 0 65 0 0 67 0 0 68 0 0 69 0 0 71 0 0 72 0 0 74 0 0 76 0 0 77 0 0 79 0 0 80 0 0 82 0 0 84 0 0 85 0 0 87 0 0 89 0 0 91 0 0 92 0 0 94 0 0 96 0 0 98 0 0 100 0 0 101 0 0 103 0 0 105 0 0 107 0 0 109 0 0 111 0 0 113 0 0 114 0 0 116 0 0 118 0 0 120 0 0 122 0 0 124 0 0 126 0 0 127 0 0 129 0 0 131 0 0 133 0 0 135 0 0 137 0 0 138 0 0 140 0 0 142 0 0 144 0 0 145 0 0 147 0 0 149 0 0 150 0 0 152 0 2 156 0 10 164 0 19 174 0 29 184 0 41 194 0 53 204 0 66 214 0 79 223 0 93 232 0 107 240 0 120 246 0 132 251 0 143 254 3 156 255 106 208 223 229 248 168 255 255 148 255 255 142 255 253 137 255 248 132 255 242 128 251 235 124 240 227 119 228 219 114 215 210 108 194 199 97 116 168 56 29 133 14 0 115 0 0 114 0 0 114 0 0 114 0 0 113 0 0 113 0 0 112 0 0 112 0 0 111 0 0 111 0 0 110 0 0 110 0 0 110 0 0 109 0 0 109 0 0 108 0 0 108 0 0 107 0 0 107 0 0 107 0 0 106 0 0 106 0 0 105 0 0 105 0 0 104 0 0 104 0 0 104 0 1 103 0 1 103 0 1 102 0 2 102 0 2 101 0 3 101 0 3 101 0 4 100 1 4 100 1 5 99 1 5 99 1 6 99 1 6 98 2 7 98 2 7 97 2 8 97 2 9 97 3 9 96 3 10 96 3 11 95 4 11 95 4 12 95 4 13 94 4 14 94 5 14 93 5 15 93 5 16 93 6 17 92 6 17 92 6 18 91 7 19 91 7 20 91 8 21 90 8 22 90 8 23 90 9 23 89 9 24 89 9 25 89 10 26 88 10 27 88 11 28 87 11 29 87 11 30 87 12 31 86 12 32 86 13 33 86 13 34 85 14 34 85 14 35 85 14 37 84 15 40 83 16 43 82 18 46 81 19 49 81 20 52 80 22 55 79 23 58 78 25 61 77 26 64 77 27 66 76 29 69 75 30 72 75 31 75 74 32 77 74 34 80 73 35 82 73 36 84 72 37 86 72 38 88 72 39 90 71 40 92 71 41 93 71 42 95 71 43 96 71 44 97 71 44 97 71 45 97 71 46 97 71 47 97 71 47 97 72 47 97 72 48 97 73 48 97 73 48 97 74 48 97 75 48 97 76 48 97 76 48 97 77 48 96 78 48 95 79 47 94 81 47 93 82 47 92 83 47 92 84 47 92 86 47 92 87 47 92 89 47 92 90 48 92 92 48 92 93 49 92 95 49 92 97 50 92 99 51 92 100 52 92 102 53 92 104 54 92 106 55 92 108 57 92 110 59 92 112 61 92 114 63 106 129 83 146 163 132 190 197 185 222 222 222 226 225 226 229 228 230 231 230 233 234 233 236 
236 235 238 238 237 240 240 239 242 242 240 244 244 242 246 245 243 247 246 245 248 247 246 249 248 247 250 249 248 250 250 249 251 251 250 251 251 251 252 252 251 252 252 252 253 253 253 253 254 254 254 254 254 254 
0 0 51 0 0 52 0 0 53 0 0 54 0 0 55 0 0 56 0 0 57 0 0 58 0 0 59 0 0 60 0 0 61 0 0 63 0 0 64 0 0 65 0 0 67 0 0 68 0 0 69 0 0 71 0 0 72 0 0 74 0 0 76 0 0 77 0 0 79 0 0 80 0 0 82 0 0 84 0 0 85 0 0 87 0 0 89 0 0 91 0 0 92 0 0 94 0 0 96 0 0 98 0 0 100 0 0 101 0 0 103 0 0 105 0 0 107 0 0 109 0 0 111 0 0 113 0 0 114 0 0 116 0 0 118 0 0 120 0 0 122 0 0 124 0 0 126 0 0 127 0 0 129 0 0 131 0 0 133 0 0 135 0 0 137 0 0 138 0 0 140 0 0 142 0 0 144 0 0 145 0 0 147 0 0 149 0 0 150 0 0 152 0 2 156 0 10 164 0 19 174 0 29 184 0 41 194 0 53 204 0 66 214 0 79 223 0 93 232 0 107 240 0 120 246 0 132 251 0 143 254 3 156 255 106 208 223 229 248 168 255 255 148 255 255 142 255 253 137 255 248 132 255 242 128 251 235 124 240 227 119 228 219 114 215 210 108 194 199 97 116 168 56 29 133 14 0 115 0 0 114 0 0 114 0 0 114 0 0 113 0 0 113 0 0 112 0 0 112 0 0 111 0 0 111 0 0 110 0 0 110 0 0 110 0 0 109 0 0 109 0 0 108 0 0 108 0 0 107 0 0 107 0 0 107 0 0 106 0 0 106 0 0 105 0 0 105 0 0 104 0 0 104 0 0 104 0 1 103 0 1 103 0 1 102 0 2 102 0 2 101 0 3 101 0 3 101 0 4 100 1 4 100 1 5 99 1 5 99 1 6 99 1 6 98 2 7 98 2 7 97 2 8 97 2 9 97 3 9 96 3 10 96 3 11 95 4 11 95 4 12 95 4 13 94 4 14 94 5 14 93 5 15 93 5 16 93 6 17 92 6 17 92 6 18 91 7 19 91 7 20 91 8 21 90 8 22 90 8 23 90 9 23 89 9 24 89 9 25 89 10 26 88 10 27 88 11 28 87 11 29 87 11 30 87 12 31 86 12 32 86 13 33 86 13 34 85 14 34 85 14 35 85 14 37 84 15 40 83 16 43 82 18 46 81 19 49 81 20 52 80 22 55 79 23 58 78 25 61 77 26 64 77 27 66 76 29 69 75 30 72 75 31 75 74 32 77 74 34 80 73 35 82 73 36 84 72 37 86 72 38 88 72 39 90 71 40 92 71 41 93 71 42 95 71 43 96 71 44 97 71 44 97 71 45 97 71 46 97 71 47 97 71 47 97 72 47 97 72 48 97 73 48 97 73 48 97 74 48 97 75 48 97 76 48 97 76 48 97 77 48 96 78 48 95 79 47 94 81 47 93 82 47 92 83 47 92 84 47 92 86 47 92 87 47 92 89 47 92 90 48 92 92 48 92 93 49 92 95 49 92 97 50 92 99 51 92 100 52 92 102 53 92 104 54 92 106 55 92 108 57 92 110 59 92 112 61 92 114 63 106 129 83 146 163 132 190 197 185 222 222 222 226 225 226 229 228 230 231 230 233 234 233 236 
236 235 238 238 237 240 240 239 242 242 240 244 244 242 246 245 243 247 246 245 248 247 246 249 248 247 250 249 248 250 250 249 251 251 250 251 251 251 252 252 251 252 252 252 253 253 253 253 254 254 254 254 254 254 
0 0 51 0 0 52 0 0 53 0 0 54 0 0 55 0 0 56 0 0 57 0 0 58 0 0 59 0 0 60 0 0 61 0 0 63 0 0 64 0 0 65 0 0 67 0 0 68 0 0 69 0 0 71 0 0 72 0 0 74 0 0 76 0 0 77 0 0 79 0 0 80 0 0 82 0 0 84 0 0 85 0 0 87 0 0 89 0 0 91 0 0 92 0 0 94 0 0 96 0 0 98 0 0 100 0 0 101 0 0 103 0 0 105 0 0 107 0 0 109 0 0 111 0 0 113 0 0 114 0 0 116 0 0 118 0 0 120 0 0 122 0 0 124 0 0 126 0 0 127 0 0 129 0 0 131 0 0 133 0 0 135 0 0 137 0 0 138 0 0 140 0 0 142 0 0 144 0 0 145 0 0 147 0 0 149 0 0 150 0 0 152 0 2 156 0 10 164 0 19 174 0 29 184 0 41 194 0 53 204 0 66 214 0 79 223 0 93 232 0 107 240 0 120 246 0 132 251 0 143 254 3 156 255 106 208 223 229 248 168 255 255 148 255 255 142 255 253 137 255 248 132 255 242 128 251 235 124 240 227 119 228 219 114 215 210 108 194 199 97 116 168 56 29 133 14 0 115 0 0 114 0 0 114 0 0 114 0 0 113 0 0 113 0 0 112 0 0 112 0 0 111 0 0 111 0 0 110 0 0 110 0 0 110 0 0 109 0 0 109 0 0 108 0 0 108 0 0 107 0 0 107 0 0 107 0 0 106 0 0 106 0 0 105 0 0 105 0 0 104 0 0 104 0 0 104 0 1 103 0 1 103 0 1 102 0 2 102 0 2 101 0 3 101 0 3 101 0 4 100 1 4 100 1 5 99 1 5 99 1 6 99 1 6 98 2 7 98 2 7 97 2 8 97 2 9 97 3 9 96 3 10 96 3 11 95 4 11 95 4 12 95 4 13 94 4 14 94 5 14 93 5 15 93 5 16 93 6 17 92 6 17 92 6 18 91 7 19 91 7 20 91 8 21 90 8 22 90 8 23 90 9 23 89 9 24 89 9 25 89 10 26 88 10 27 88 11 28 87 11 29 87 11 30 87 12 31 86 12 32 86 13 33 86 13 34 85 14 34 85 14 35 85 14 37 84 15 40 83 16 43 82 18 46 81 19 49 81 20 52 80 22 55 79 23 58 78 25 61 77 26 64 77 27 66 76 29 69 75 30 72 75 31 75 74 32 77 74 34 80 73 35 82 73 36 84 72 37 86 72 38 88 72 39 90 71 40 92 71 41 93 71 42 95 71 43 96 71 44 97 71 44 97 71 45 97 71 46 97 71 47 97 71 47 97 72 47 97 72 48 97 73 48 97 73 48 97 74 48 97 75 48 97 76 48 97 76 48 97 77 48 96 78 48 95 79 47 94 81 47 93 82 47 92 83 47 92 84 47 92 86 47 92 87 47 92 89 47 92 90 48 92 92 48 92 93 49 92 95 49 92 97 50 92 99 51 92 100 52 92 102 53 92 104 54 92 106 55 92 108 57 92 110 59 92 112 61 92 114 63 106 129 83 146 163 132 190 197 185 222 222 222 226 225 226 229 228 230 231 230 233 234 233 236 
236 235 238 238 237 240 240 239 242 242 240 244 244 242 246 245 243 247 246 245 248 247 246 249 248 247 250 249 248 250 250 249 251 251 250 251 251 251 252 252 251 252 252 252 253 253 253 253 254 254 254 254 254 254 
0 0 51 0 0 52 0 0 53 0 0 54 0 0 55 0 0 56 0 0 57 0 0 58 0 0 59 0 0 60 0 0 61 0 0 63 0 0 64 0 0 65 0 0 67 0 0 68 0 0 69 0 0 71 0 0 72 0 0 74 0 0 76 0 0 77 0 0 79 0 0 80 0 0 82 0 0 84 0 0 85 0 0 87 0 0 89 0 0 91 0 0 92 0 0 94 0 0 96 0 0 98 0 0 100 0 0 101 0 0 103 0 0 105 0 0 107 0 0 109 0 0 111 0 0 113 0 0 114 0 0 116 0 0 118 0 0 120 0 0 122 0 0 124 0 0 126 0 0 127 0 0 129 0 0 131 0 0 133 0 0 135 0 0 137 0 0 138 0 0 140 0 0 142 0 0 144 0 0 145 0 0 147 0 0 149 0 0 150 0 0 152 0 2 156 0 10 164 0 19 174 0 29 184 0 41 194 0 53 204 0 66 214 0 79 223 0 93 232 0 107 240 0 120 246 0 132 251 0 143 254 3 156 255 106 208 223 229 248 168 255 255 148 255 255 142 255 253 137 255 248 132 255 242 128 251 235 124 240 227 119 228 219 114 215 210 108 194 199 97 116 168 56 29 133 14 0 115 0 0 114 0 0 114 0 0 114 0 0 113 0 0 113 0 0 112 0 0 112 0 0 111 0 0 111 0 0 110 0 0 110 0 0 110 0 0 109 0 0 109 0 0 108 0 0 108 0 0 107 0 0 107 0 0 107 0 0 106 0 0 106 0 0 105 0 0 105 0 0 104 0 0 104 0 0 104 0 1 103 0 1 103 0 1 102 0 2 102 0 2 101 0 3 101 0 3 101 0 4 100 1 4 100 1 5 99 1 5 99 1 6 99 1 6 98 2 7 98 2 7 97 2 8 97 2 9 97 3 9 96 3 10 96 3 11 95 4 11 95 4 12 95 4 13 94 4 14 94 5 14 93 5 15 93 5 16 93 6 17 92 6 17 92 6 18 91 7 19 91 7 20 91 8 21 90 8 22 90 8 23 90 9 23 89 9 24 89 9 25 89 10 26 88 10 27 88 11 28 87 11 29 87 11 30 87 12 31 86 12 32 86 13 33 86 13 34 85 14 34 85 14 35 85 14 37 84 15 40 83 16 43 82 18 46 81 19 49 81 20 52 80 22 55 79 23 58 78 25 61 77 26 64 77 27 66 76 29 69 75 30 72 75 31 75 74 32 77 74 34 80 73 35 82 73 36 84 72 37 86 72 38 88 72 39 90 71 40 92 71 41 93 71 42 95 71 43 96 71 44 97 71 44 97 71 45 97 71 46 97 71 47 97 71 47 97 72 47 97 72 48 97 73 48 97 73 48 97 74 48 97 75 48 97 76 48 97 76 48 97 77 48 96 78 48 95 79 47 94 81 47 93 82 47 92 83 47 92 84 47 92 86 47 92 87 47 92 89 47 92 90 48 92 92 48 92 93 49 92 95 49 92 97 50 92 99 51 92 100 52 92 102 53 92 104 54 92 106 55 92 108 57 92 110 59 92 112 61 92 114 63 106 129 83 146 163 132 190 197 185 222 222 222 226 225 226 229 228 230 231 230 233 234 233 236 
236 235 238 238 237 240 240 239 242 242 240 244 244 242 246 245 243 247 246 245 248 247 246 249 248 247 250 249 248 250 250 249 251 251 250 251 251 251 252 252 251 252 252 252 253 253 253 253 254 254 254 254 254 254 
0 0 51 0 0 52 0 0 53 0 0 54 0 0 55 0 0 56 0 0 57 0 0 58 0 0 59 0 0 60 0 0 61 0 0 63 0 0 64 0 0 65 0 0 67 0 0 68 0 0 69 0 0 71 0 0 72 0 0 74 0 0 76 0 0 77 0 0 79 0 0 80 0 0 82 0 0 84 0 0 85 0 0 87 0 0 89 0 0 91 0 0 92 0 0 94 0 0 96 0 0 98 0 0 100 0 0 101 0 0 103 0 0 105 0 0 107 0 0 109 0 0 111 0 0 113 0 0 114 0 0 116 0 0 118 0 0 120 0 0 122 0 0 124 0 0 126 0 0 127 0 0 129 0 0 131 0 0 133 0 0 135 0 0 137 0 0 138 0 0 140 0 0 142 0 0 144 0 0 145 0 0 147 0 0 149 0 0 150 0 0 152 0 2 156 0 10 164 0 19 174 0 29 184 0 41 194 0 53 204 0 66 214 0 79 223 0 93 232 0 107 240 0 120 246 0 132 251 0 143 254 3 156 255 106 208 223 229 248 168 255 255 148 255 255 142 255 253 137 255 248 132 255 242 128 251 235 124 240 227 119 228 219 114 215 210 108 194 199 97 116 168 56 29 133 14 0 115 0 0 114 0 0 114 0 0 114 0 0 113 0 0 113 0 0 112 0 0 112 0 0 111 0 0 111 0 0 110 0 0 110 0 0 110 0 0 109 0 0 109 0 0 108 0 0 108 0 0 107 0 0 107 0 0 107 0 0 106 0 0 106 0 0 105 0 0 105 0 0 104 0 0 104 0 0 104 0 1 103 0 1 103 0 1 102 0 2 102 0 2 101 0 3 101 0 3 101 0 4 100 1 4 100 1 5 99 1 5 99 1 6 99 1 6 98 2 7 98 2 7 97 2 8 97 2 9 97 3 9 96 3 10 96 3 11 95 4 11 95 4 12 95 4 13 94 4 14 94 5 14 93 5 15 93 5 16 93 6 17 92 6 17 92 6 18 91 7 19 91 7 20 91 8 21 90 8 22 90 8 23 90 9 23 89 9 24 89 9 25 89 10 26 88 10 27 88 11 28 87 11 29 87 11 30 87 12 31 86 12 32 86 13 33 86 13 34 85 14 34 85 14 35 85 14 37 84 15 40 83 16 43 82 18 46 81 19 49 81 20 52 80 22 55 79 23 58 78 25 61 77 26 64 77 27 66 76 29 69 75 30 72 75 31 75 74 32 77 74 34 80 73 35 82 73 36 84 72 37 86 72 38 88 72 39 90 71 40 92 71 41 93 71 42 95 71 43 96 71 44 97 71 44 97 71 45 97 71 46 97 71 47 97 71 47 97 72 47 97 72 48 97 73 48 97 73 48 97 74 48 97 75 48 97 76 48 97 76 48 97 77 48 96 78 48 95 79 47 94 81 47 93 82 47 92 83 47 92 84 47 92 86 47 92 87 47 92 89 47 92 90 48 92 92 48 92 93 49 92 95 49 92 97 50 92 99 51 92 100 52 92 102 53 92 104 54 92 106 55 92 108 57 92 110 59 92 112 61 92 114 63 106 129 83 146 163 132 190 197 185 222 222 222 226 225 226 229 228 230 231 230 233 234 233 236 
236 235 238 238 237 240 240 239 242 242 240 244 244 242 246 245 243 247 246 245 248 247 246 249 248 247 250 249 248 250 250 249 251 251 250 251 251 251 252 252 251 252 252 252 253 253 253 253 254 254 254 254 254 254 
0 0 51 0 0 52 0 0 53 0 0 54 0 0 55 0 0 56 0 0 57 0 0 58 0 0 59 0 0 60 0 0 61 0 0 63 0 0 64 0 0 65 0 0 67 0 0 68 0 0 69 0 0 71 0 0 72 0 0 74 0 0 76 0 0 77 0 0 79 0 0 80 0 0 82 0 0 84 0 0 85 0 0 87 0 0 89 0 0 91 0 0 92 0 0 94 0 0 96 0 0 98 0 0 100 0 0 101 0 0 103 0 0 105 0 0 107 0 0 109 0 0 111 0 0 113 0 0 114 0 0 116 0 0 118 0 0 120 0 0 122 0 0 124 0 0 126 0 0 127 0 0 129 0 0 131 0 0 133 0 0 135 0 0 137 0 0 138 0 0 140 0 0 142 0 0 144 0 0 145 0 0 147 0 0 149 0 0 150 0 0 152 0 2 156 0 10 164 0 19 174 0 29 184 0 41 194 0 53 204 0 66 214 0 79 223 0 93 232 0 107 240 0 120 246 0 132 251 0 143 254 3 156 255 106 208 223 229 248 168 255 255 148 255 255 142 255 253 137 255 248 132 255 242 128 251 235 124 240 227 119 228 219 114 215 210 108 194 199 97 116 168 56 29 133 14 0 115 0 0 114 0 0 114 0 0 114 0 0 113 0 0 113 0 0 112 0 0 112 0 0 111 0 0 111 0 0 110 0 0 110 0 0 110 0 0 109 0 0 109 0 0 108 0 0 108 0 0 107 0 0 107 0 0 107 0 0 106 0 0 106 0 0 105 0 0 105 0 0 104 0 0 104 0 0 104 0 1 103 0 1 103 0 1 102 0 2 102 0 2 101 0 3 101 0 3 101 0 4 100 1 4 100 1 5 99 1 5 99 1 6 99 1 6 98 2 7 98 2 7 97 2 8 97 2 9 97 3 9 96 3 10 96 3 11 95 4 11 95 4 12 95 4 13 94 4 14 94 5 14 93 5 15 93 5 16 93 6 17 92 6 17 92 6 18 91 7 19 91 7 20 91 8 21 90 8 22 90 8 23 90 9 23 89 9 24 89 9 25 89 10 26 88 10 27 88 11 28 87 11 29 87 11 30 87 12 31 86 12 32 86 13 33 86 13 34 85 14 34 85 14 35 85 14 37 84 15 40 83 16 43 82 18 46 81 19 49 81 20 52 80 22 55 79 23 58 78 25 61 77 26 64 77 27 66 76 29 69 75 30 72 75 31 75 74 32 77 74 34 80 73 35 82 73 36 84 72 37 86 72 38 88 72 39 90 71 40 92 71 41 93 71 42 95 71 43 96 71 44 97 71 44 97 71 45 97 71 46 97 71 47 97 71 47 97 72 47 97 72 48 97 73 48 97 73 48 97 74 48 97 75 48 97 76 48 97 76 48 97 77 48 96 78 48 95 79 47 94 81 47 93 82 47 92 83 47 92 84 47 92 86 47 92 87 47 92 89 47 92 90 48 92 92 48 92 93 49 92 95 49 92 97 50 92 99 51 92 100 52 92 102 53 92 104 54 92 106 55 92 108 57 92 110 59 92 112 61 92 114 63 106 129 83 146 163 132 190 197 185 222 222 222 226 225 226 229 228 230 231 230 233 234 233 236 
236 235 238 238 237 240 240 239 242 242 240 244 244 242 246 245 243 247 246 245 248 247 246 249 248 247 250 249 248 250 250 249 251 251 250 251 251 251 252 252 251 252 252 252 253 253 253 253 254 254 254 254 254 254 
0 0 51 0 0 52 0 0 53 0 0 54 0 0 55 0 0 56 0 0 57 0 0 58 0 0 59 0 0 60 0 0 61 0 0 63 0 0 64 0 0 65 0 0 67 0 0 68 0 0 69 0 0 71 0 0 72 0 0 74 0 0 76 0 0 77 0 0 79 0 0 80 0 0 82 0 0 84 0 0 85 0 0 87 0 0 89 0 0 91 0 0 92 0 0 94 0 0 96 0 0 98 0 0 100 0 0 101 0 0 103 0 0 105 0 0 107 0 0 109 0 0 111 0 0 113 0 0 114 0 0 116 0 0 118 0 0 120 0 0 122 0 0 124 0 0 126 0 0 127 0 0 129 0 0 131 0 0 133 0 0 135 0 0 137 0 0 138 0 0 140 0 0 142 0 0 144 0 0 145 0 0 147 0 0 149 0 0 150 0 0 152 0 2 156 0 10 164 0 19 174 0 29 184 0 41 194 0 53 204 0 66 214 0 79 223 0 93 232 0 107 240 0 120 246 0 132 251 0 143 254 3 156 255 106 208 223 229 248 168 255 255 148 255 255 142 255 253 137 255 248 132 255 242 128 251 235 124 240 227 119 228 219 114 215 210 108 194 199 97 116 168 56 29 133 14 0 115 0 0 114 0 0 114 0 0 114 0 0 113 0 0 113 0 0 112 0 0 112 0 0 111 0 0 111 0 0 110 0 0 110 0 0 110 0 0 109 0 0 109 0 0 108 0 0 108 0 0 107 0 0 107 0 0 107 0 0 106 0 0 106 0 0 105 0 0 105 0 0 104 0 0 104 0 0 104 0 1 103 0 1 103 0 1 102 0 2 102 0 2 101 0 3 101 0 3 101 0 4 100 1 4 100 1 5 99 1 5 99 1 6 99 1 6 98 2 7 98 2 7 97 2 8 97 2 9 97 3 9 96 3 10 96 3 11 95 4 11 95 4 12 95 4 13 94 4 14 94 5 14 93 5 15 93 5 16 93 6 17 92 6 17 92 6 18 91 7 19 91 7 20 91 8 21 90 8 22 90 8 23 90 9 23 89 9 24 89 9 25 89 10 26 88 10 27 88 11 28 87 11 29 87 11 30 87 12 31 86 12 32 86 13 33 86 13 34 85 14 34 85 14 35 85 14 37 84 15 40 83 16 43 82 18 46 81 19 49 81 20 52 80 22 55 79 23 58 78 25 61 77 26 64 77 27 66 76 29 69 75 30 72 75 31 75 74 32 77 74 34 80 73 35 82 73 36 84 72 37 86 72 38 88 72 39 90 71 40 92 71 41 93 71 42 95 71 43 96 71 44 97 71 44 97 71 45 97 71 46 97 71 47 97 71 47 97 72 47 97 72 48 97 73 48 97 73 48 97 74 48 97 75 48 97 76 48 97 76 48 97 77 48 96 78 48 95 79 47 94 81 47 93 82 47 92 83 47 92 84 47 92 86 47 92 87 47 92 89 47 92 90 48 92 92 48 92 93 49 92 95 49 92 97 50 92 99 51 92 100 52 92 102 53 92 104 54 92 106 55 92 108 57 92 110 59 92 112 61 92 114 63 106 129 83 146 163 132 190 197 185 222 222 222 226 225 226 229 228 230 231 230 233 234 233 236 
236 235 238 238 237 240 240 239 242 242 240 244 244 242 246 245 243 247 246 245 248 247 246 249 248 247 250 249 248 250 250 249 251 251 250 251 251 251 252 252 251 252 252 252 253 253 253 253 254 254 254 254 254 254 
0 0 51 0 0 52 0 0 53 0 0 54 0 0 55 0 0 56 0 0 57 0 0 58 0 0 59 0 0 60 0 0 61 0 0 63 0 0 64 0 0 65 0 0 67 0 0 68 0 0 69 0 0 71 0 0 72 0 0 74 0 0 76 0 0 77 0 0 79 0 0 80 0 0 82 0 0 84 0 0 85 0 0 87 0 0 89 0 0 91 0 0 92 0 0 94 0 0 96 0 0 98 0 0 100 0 0 101 0 0 103 0 0 105 0 0 107 0 0 109 0 0 111 0 0 113 0 0 114 0 0 116 0 0 118 0 0 120 0 0 122 0 0 124 0 0 126 0 0 127 0 0 129 0 0 131 0 0 133 0 0 135 0 0 137 0 0 138 0 0 140 0 0 142 0 0 144 0 0 145 0 0 147 0 0 149 0 0 150 0 0 152 0 2 156 0 10 164 0 19 174 0 29 184 0 41 194 0 53 204 0 66 214 0 79 223 0 93 232 0 107 240 0 120 246 0 132 251 0 143 254 3 156 255 106 208 223 229 248 168 255 255 148 255 255 142 255 253 137 255 248 132 255 242 128 251 235 124 240 227 119 228 219 114 215 210 108 194 199 97 116 168 56 29 133 14 0 115 0 0 114 0 0 114 0 0 114 0 0 113 0 0 113 0 0 112 0 0 112 0 0 111 0 0 111 0 0 110 0 0 110 0 0 110 0 0 109 0 0 109 0 0 108 0 0 108 0 0 107 0 0 107 0 0 107 0 0 106 0 0 106 0 0 105 0 0 105 0 0 104 0 0 104 0 0 104 0 1 103 0 1 103 0 1 102 0 2 102 0 2 101 0 3 101 0 3 101 0 4 100 1 4 100 1 5 99 1 5 99 1 6 99 1 6 98 2 7 98 2 7 97 2 8 97 2 9 97 3 9 96 3 10 96 3 11 95 4 11 95 4 12 95 4 13 94 4 14 94 5 14 93 5 15 93 5 16 93 6 17 92 6 17 92 6 18 91 7 19 91 7 20 91 8 21 90 8 22 90 8 23 90 9 23 89 9 24 89 9 25 89 10 26 88 10 27 88 11 28 87 11 29 87 11 30 87 12 31 86 12 32 86 13 33 86 13 34 85 14 34 85 14 35 85 14 37 84 15 40 83 16 43 82 18 46 81 19 49 81 20 52 80 22 55 79 23 58 78 25 61 77 26 64 77 27 66 76 29 69 75 30 72 75 31 75 74 32 77 74 34 80 73 35 82 73 36 84 72 37 86 72 38 88 72 39 90 71 40 92 71 41 93 71 42 95 71 43 96 71 44 97 71 44 97 71 45 97 71 46 97 71 47 97 71 47 97 72 47 97 72 48 97 73 48 97 73 48 97 74 48 97 75 48 97 76 48 97 76 48 97 77 48 96 78 48 95 79 47 94 81 47 93 82 47 92 83 47 92 84 47 92 86 47 92 87 47 92 89 47 92 90 48 92 92 48 92 93 49 92 95 49 92 97 50 92 99 51 92 100 52 92 102 53 92 104 54 92 106 55 92 108 57 92 110 59 92 112 61 92 114 63 106 129 83 146 163 132 190 197 185 222 222 222 226 225 226 229 228 230 231 230 233 234 233 236 
236 235 238 238 237 240 240 239 242 242 240 244 244 242 246 245 243 247 246 245 248 247 246 249 248 247 250 249 248 250 250 249 251 251 250 251 251 251 252 252 251 252 252 252 253 253 253 253 254 254 254 254 254 254 
0 0 51 0 0 52 0 0 53 0 0 54 0 0 55 0 0 56 0 0 57 0 0 58 0 0 59 0 0 60 0 0 61 0 0 63 0 0 64 0 0 65 0 0 67 0 0 68 0 0 69 0 0 71 0 0 72 0 0 74 0 0 76 0 0 77 0 0 79 0 0 80 0 0 82 0 0 84 0 0 85 0 0 87 0 0 89 0 0 91 0 0 92 0 0 94 0 0 96 0 0 98 0 0 100 0 0 101 0 0 103 0 0 105 0 0 107 0 0 109 0 0 111 0 0 113 0 0 114 0 0 116 0 0 118 0 0 120 0 0 122 0 0 124 0 0 126 0 0 127 0 0 129 0 0 131 0 0 133 0 0 135 0 0 137 0 0 138 0 0 140 0 0 142 0 0 144 0 0 145 0 0 147 0 0 149 0 0 150 0 0 152 0 2 156 0 10 164 0 19 174 0 29 184 0 41 194 0 53 204 0 66 214 0 79 223 0 93 232 0 107 240 0 120 246 0 132 251 0 143 254 3 156 255 106 208 223 229 248 168 255 255 148 255 255 142 255 253 137 255 248 132 255 242 128 251 235 124 240 227 119 228 219 114 215 210 108 194 199 97 116 168 56 29 133 14 0 115 0 0 114 0 0 114 0 0 114 0 0 113 0 0 113 0 0 112 0 0 112 0 0 111 0 0 111 0 0 110 0 0 110 0 0 110 0 0 109 0 0 109 0 0 108 0 0 108 0 0 107 0 0 107 0 0 107 0 0 106 0 0 106 0 0 105 0 0 105 0 0 104 0 0 104 0 0 104 0 1 103 0 1 103 0 1 102 0 2 102 0 2 101 0 3 101 0 3 101 0 4 100 1 4 100 1 5 99 1 5 99 1 6 99 1 6 98 2 7 98 2 7 97 2 8 97 2 9 97 3 9 96 3 10 96 3 11 95 4 11 95 4 12 95 4 13 94 4 14 94 5 14 93 5 15 93 5 16 93 6 17 92 6 17 92 6 18 91 7 19 91 7 20 91 8 21 90 8 22 90 8 23 90 9 23 89 9 24 89 9 25 89 10 26 88 10 27 88 11 28 87 11 29 87 11 30 87 12 31 86 12 32 86 13 33 86 13 34 85 14 34 85 14 35 85 14 37 84 15 40 83 16 43 82 18 46 81 19 49 81 20 52 80 22 55 79 23 58 78 25 61 77 26 64 77 27 66 76 29 69 75 30 72 75 31 75 74 32 77 74 34 80 73 35 82 73 36 84 72 37 86 72 38 88 72 39 90 71 40 92 71 41 93 71 42 95 71 43 96 71 44 97 71 44 97 71 45 97 71 46 97 71 47 97 71 47 97 72 47 97 72 48 97 73 48 97 73 48 97 74 48 97 75 48 97 76 48 97 76 48 97 77 48 96 78 48 95 79 47 94 81 47 93 82 47 92 83 47 92 84 47 92 86 47 92 87 47 92 89 47 92 90 48 92 92 48 92 93 49 92 95 49 92 97 50 92 99 51 92 100 52 92 102 53 92 104 54 92 106 55 92 108 57 92 110 59 92 112 61 92 114 63 106 129 83 146 163 132 190 197 185 222 222 222 226 225 226 229 228 230 231 230 233 234 233 236 
236 235 238 238 237 240 240 239 242 242 240 244 244 242 246 245 243 247 246 245 248 247 246 249 248 247 250 249 248 250 250 249 251 251 250 251 251 251 252 252 251 252 252 252 253 253 253 253 254 254 254 254 254 254 
